G04*
G04 #@! TF.GenerationSoftware,Altium Limited,Altium Designer,24.1.2 (44)*
G04*
G04 Layer_Color=16711935*
%FSLAX44Y44*%
%MOMM*%
G71*
G04*
G04 #@! TF.SameCoordinates,C3C585C2-8FFB-4C0B-8854-E287818FFA03*
G04*
G04*
G04 #@! TF.FilePolarity,Negative*
G04*
G01*
G75*
%ADD84R,5.2032X3.2032*%
%ADD85C,4.2032*%
%ADD86C,0.6032*%
%ADD87C,1.8032*%
%ADD88R,1.8032X1.8032*%
%ADD89C,0.8032*%
%ADD90O,2.2032X1.1032*%
%ADD91O,1.9032X1.1032*%
%ADD93C,1.4032*%
%ADD94R,1.4032X1.4032*%
%ADD95R,1.8032X1.8032*%
%ADD96R,4.2672X2.7432*%
%ADD97R,2.7432X4.2672*%
%ADD106C,1.3000*%
D84*
X841640Y532650D02*
D03*
Y482650D02*
D03*
D85*
X865000Y35000D02*
D03*
Y715000D02*
D03*
X35000Y35000D02*
D03*
Y715000D02*
D03*
D86*
X346184Y105910D02*
D03*
X360184D02*
D03*
X346184Y91910D02*
D03*
X360184D02*
D03*
X346184Y77910D02*
D03*
X360184Y77910D02*
D03*
X339184Y98910D02*
D03*
X353184D02*
D03*
X367184D02*
D03*
X339184Y84910D02*
D03*
X367184D02*
D03*
X353184D02*
D03*
D87*
X27934Y115860D02*
D03*
Y141260D02*
D03*
Y90460D02*
D03*
X28000Y528450D02*
D03*
Y579250D02*
D03*
Y553850D02*
D03*
Y285500D02*
D03*
Y310900D02*
D03*
Y260100D02*
D03*
Y394275D02*
D03*
Y445075D02*
D03*
Y419675D02*
D03*
X298080Y707170D02*
D03*
X119010D02*
D03*
D88*
X27934Y166660D02*
D03*
X28000Y604650D02*
D03*
Y336300D02*
D03*
Y470475D02*
D03*
D89*
X842364Y129750D02*
D03*
X842364Y187550D02*
D03*
D90*
X837464Y115400D02*
D03*
X837464Y201900D02*
D03*
D91*
X879164Y115400D02*
D03*
Y201900D02*
D03*
D93*
X427100Y310250D02*
D03*
X401700D02*
D03*
X376300D02*
D03*
X350900D02*
D03*
X325500D02*
D03*
X300100D02*
D03*
X274700D02*
D03*
D94*
X249300D02*
D03*
D95*
X272680Y707170D02*
D03*
X93610D02*
D03*
D96*
X831900Y667400D02*
D03*
D97*
X870000Y616600D02*
D03*
X806500D02*
D03*
D106*
X324500Y547000D02*
D03*
X108250Y531750D02*
D03*
X238250Y570500D02*
D03*
X171500Y569750D02*
D03*
M02*
