G04*
G04 #@! TF.GenerationSoftware,Altium Limited,Altium Designer,24.1.2 (44)*
G04*
G04 Layer_Color=128*
%FSLAX44Y44*%
%MOMM*%
G71*
G04*
G04 #@! TF.SameCoordinates,C3C585C2-8FFB-4C0B-8854-E287818FFA03*
G04*
G04*
G04 #@! TF.FilePolarity,Positive*
G04*
G01*
G75*
%ADD12C,0.1270*%
D12*
X835640Y532650D02*
X847640D01*
X841640Y526650D02*
Y538650D01*
X835640Y482650D02*
X847640D01*
X841640Y476650D02*
Y488650D01*
X848000Y35000D02*
X882000D01*
X865000Y18000D02*
Y52000D01*
X320500Y547000D02*
X328500D01*
X324500Y543000D02*
Y551000D01*
X345184Y105910D02*
X347184D01*
X346184Y104910D02*
Y106910D01*
X359184Y105910D02*
X361184D01*
X360184Y104910D02*
Y106910D01*
X345184Y91910D02*
X347184D01*
X346184Y90910D02*
Y92910D01*
X359184Y91910D02*
X361184D01*
X360184Y90910D02*
Y92910D01*
X345184Y77910D02*
X347184D01*
X346184Y76910D02*
Y78910D01*
X359184Y77910D02*
X361184D01*
X360184Y76910D02*
Y78910D01*
X338184Y98910D02*
X340184D01*
X339184Y97910D02*
Y99910D01*
X352184Y98910D02*
X354184D01*
X353184Y97910D02*
Y99910D01*
X366184Y98910D02*
X368184D01*
X367184Y97910D02*
Y99910D01*
X338184Y84910D02*
X340184D01*
X339184Y83910D02*
Y85910D01*
X366184Y84910D02*
X368184D01*
X367184Y83910D02*
Y85910D01*
X352184Y84910D02*
X354184D01*
X353184Y83910D02*
Y85910D01*
X848000Y715000D02*
X882000D01*
X865000Y698000D02*
Y732000D01*
X18000Y35000D02*
X52000D01*
X35000Y18000D02*
Y52000D01*
X23934Y115860D02*
X31934D01*
X27934Y111860D02*
Y119860D01*
X23934Y166660D02*
X31934D01*
X27934Y162660D02*
Y170660D01*
X23934Y141260D02*
X31934D01*
X27934Y137260D02*
Y145260D01*
X23934Y90460D02*
X31934D01*
X27934Y86460D02*
Y94460D01*
X839364Y129750D02*
X845364D01*
X842364Y126750D02*
Y132750D01*
X839364Y187550D02*
X845364D01*
X842364Y184550D02*
Y190550D01*
X834464Y115400D02*
X840464D01*
X837464Y112400D02*
Y118400D01*
X834464Y201900D02*
X840464D01*
X837464Y198900D02*
Y204900D01*
X876164Y115400D02*
X882164D01*
X879164Y112400D02*
Y118400D01*
X876164Y201900D02*
X882164D01*
X879164Y198900D02*
Y204900D01*
X24000Y528450D02*
X32000D01*
X28000Y524450D02*
Y532450D01*
X24000Y579250D02*
X32000D01*
X28000Y575250D02*
Y583250D01*
X24000Y604650D02*
X32000D01*
X28000Y600650D02*
Y608650D01*
X24000Y553850D02*
X32000D01*
X28000Y549850D02*
Y557850D01*
X24000Y285500D02*
X32000D01*
X28000Y281500D02*
Y289500D01*
X24000Y336300D02*
X32000D01*
X28000Y332300D02*
Y340300D01*
X24000Y310900D02*
X32000D01*
X28000Y306900D02*
Y314900D01*
X24000Y260100D02*
X32000D01*
X28000Y256100D02*
Y264100D01*
X24000Y394275D02*
X32000D01*
X28000Y390275D02*
Y398275D01*
X24000Y445075D02*
X32000D01*
X28000Y441075D02*
Y449075D01*
X24000Y470475D02*
X32000D01*
X28000Y466475D02*
Y474475D01*
X24000Y419675D02*
X32000D01*
X28000Y415675D02*
Y423675D01*
X424100Y310250D02*
X430100D01*
X427100Y307250D02*
Y313250D01*
X398700Y310250D02*
X404700D01*
X401700Y307250D02*
Y313250D01*
X373300Y310250D02*
X379300D01*
X376300Y307250D02*
Y313250D01*
X347900Y310250D02*
X353900D01*
X350900Y307250D02*
Y313250D01*
X322500Y310250D02*
X328500D01*
X325500Y307250D02*
Y313250D01*
X297100Y310250D02*
X303100D01*
X300100Y307250D02*
Y313250D01*
X271700Y310250D02*
X277700D01*
X274700Y307250D02*
Y313250D01*
X246300Y310250D02*
X252300D01*
X249300Y307250D02*
Y313250D01*
X18000Y715000D02*
X52000D01*
X35000Y698000D02*
Y732000D01*
X268680Y707170D02*
X276680D01*
X272680Y703170D02*
Y711170D01*
X294080Y707170D02*
X302080D01*
X298080Y703170D02*
Y711170D01*
X824400Y667400D02*
X839400D01*
X831900Y659900D02*
Y674900D01*
X862500Y616600D02*
X877500D01*
X870000Y609100D02*
Y624100D01*
X799000Y616600D02*
X814000D01*
X806500Y609100D02*
Y624100D01*
X104250Y531750D02*
X112250D01*
X108250Y527750D02*
Y535750D01*
X234250Y570500D02*
X242250D01*
X238250Y566500D02*
Y574500D01*
X167500Y569750D02*
X175500D01*
X171500Y565750D02*
Y573750D01*
X89610Y707170D02*
X97610D01*
X93610Y703170D02*
Y711170D01*
X115010Y707170D02*
X123010D01*
X119010Y703170D02*
Y711170D01*
X871000Y517500D02*
X874000D01*
X872500Y516000D02*
Y519000D01*
X871000Y317500D02*
X874000D01*
X872500Y316000D02*
Y319000D01*
X871000Y217500D02*
X874000D01*
X872500Y216000D02*
Y219000D01*
X821000Y717500D02*
X824000D01*
X822500Y716000D02*
Y719000D01*
X846000Y567500D02*
X849000D01*
X847500Y566000D02*
Y569000D01*
X846000Y267500D02*
X849000D01*
X847500Y266000D02*
Y269000D01*
X821000Y117500D02*
X824000D01*
X822500Y116000D02*
Y119000D01*
X846000Y67500D02*
X849000D01*
X847500Y66000D02*
Y69000D01*
X821000Y17500D02*
X824000D01*
X822500Y16000D02*
Y19000D01*
X771000Y717500D02*
X774000D01*
X772500Y716000D02*
Y719000D01*
X796000Y667500D02*
X799000D01*
X797500Y666000D02*
Y669000D01*
X771000Y617500D02*
X774000D01*
X772500Y616000D02*
Y619000D01*
X771000Y517500D02*
X774000D01*
X772500Y516000D02*
Y519000D01*
X796000Y467500D02*
X799000D01*
X797500Y466000D02*
Y469000D01*
X771000Y417500D02*
X774000D01*
X772500Y416000D02*
Y419000D01*
X796000Y367500D02*
X799000D01*
X797500Y366000D02*
Y369000D01*
X796000Y267500D02*
X799000D01*
X797500Y266000D02*
Y269000D01*
X771000Y117500D02*
X774000D01*
X772500Y116000D02*
Y119000D01*
X796000Y67500D02*
X799000D01*
X797500Y66000D02*
Y69000D01*
X771000Y17500D02*
X774000D01*
X772500Y16000D02*
Y19000D01*
X721000Y717500D02*
X724000D01*
X722500Y716000D02*
Y719000D01*
X721000Y617500D02*
X724000D01*
X722500Y616000D02*
Y619000D01*
X746000Y567500D02*
X749000D01*
X747500Y566000D02*
Y569000D01*
X721000Y517500D02*
X724000D01*
X722500Y516000D02*
Y519000D01*
X721000Y417500D02*
X724000D01*
X722500Y416000D02*
Y419000D01*
X746000Y267500D02*
X749000D01*
X747500Y266000D02*
Y269000D01*
X746000Y167500D02*
X749000D01*
X747500Y166000D02*
Y169000D01*
X746000Y67500D02*
X749000D01*
X747500Y66000D02*
Y69000D01*
X721000Y17500D02*
X724000D01*
X722500Y16000D02*
Y19000D01*
X671000Y417500D02*
X674000D01*
X672500Y416000D02*
Y419000D01*
X671000Y217500D02*
X674000D01*
X672500Y216000D02*
Y219000D01*
X696000Y167500D02*
X699000D01*
X697500Y166000D02*
Y169000D01*
X671000Y17500D02*
X674000D01*
X672500Y16000D02*
Y19000D01*
X646000Y567500D02*
X649000D01*
X647500Y566000D02*
Y569000D01*
X621000Y417500D02*
X624000D01*
X622500Y416000D02*
Y419000D01*
X646000Y367500D02*
X649000D01*
X647500Y366000D02*
Y369000D01*
X621000Y317500D02*
X624000D01*
X622500Y316000D02*
Y319000D01*
X646000Y267500D02*
X649000D01*
X647500Y266000D02*
Y269000D01*
X621000Y217500D02*
X624000D01*
X622500Y216000D02*
Y219000D01*
X646000Y167500D02*
X649000D01*
X647500Y166000D02*
Y169000D01*
X621000Y17500D02*
X624000D01*
X622500Y16000D02*
Y19000D01*
X596000Y667500D02*
X599000D01*
X597500Y666000D02*
Y669000D01*
X596000Y467500D02*
X599000D01*
X597500Y466000D02*
Y469000D01*
X596000Y367500D02*
X599000D01*
X597500Y366000D02*
Y369000D01*
X596000Y267500D02*
X599000D01*
X597500Y266000D02*
Y269000D01*
X571000Y217500D02*
X574000D01*
X572500Y216000D02*
Y219000D01*
X596000Y167500D02*
X599000D01*
X597500Y166000D02*
Y169000D01*
X571000Y17500D02*
X574000D01*
X572500Y16000D02*
Y19000D01*
X546000Y567500D02*
X549000D01*
X547500Y566000D02*
Y569000D01*
X521000Y317500D02*
X524000D01*
X522500Y316000D02*
Y319000D01*
X546000Y267500D02*
X549000D01*
X547500Y266000D02*
Y269000D01*
X521000Y217500D02*
X524000D01*
X522500Y216000D02*
Y219000D01*
X546000Y167500D02*
X549000D01*
X547500Y166000D02*
Y169000D01*
X471000Y317500D02*
X474000D01*
X472500Y316000D02*
Y319000D01*
X496000Y267500D02*
X499000D01*
X497500Y266000D02*
Y269000D01*
X496000Y167500D02*
X499000D01*
X497500Y166000D02*
Y169000D01*
X471000Y17500D02*
X474000D01*
X472500Y16000D02*
Y19000D01*
X446000Y667500D02*
X449000D01*
X447500Y666000D02*
Y669000D01*
X421000Y617500D02*
X424000D01*
X422500Y616000D02*
Y619000D01*
X446000Y267500D02*
X449000D01*
X447500Y266000D02*
Y269000D01*
X446000Y167500D02*
X449000D01*
X447500Y166000D02*
Y169000D01*
X371000Y617500D02*
X374000D01*
X372500Y616000D02*
Y619000D01*
X371000Y417500D02*
X374000D01*
X372500Y416000D02*
Y419000D01*
X396000Y367500D02*
X399000D01*
X397500Y366000D02*
Y369000D01*
X396000Y167500D02*
X399000D01*
X397500Y166000D02*
Y169000D01*
X371000Y117500D02*
X374000D01*
X372500Y116000D02*
Y119000D01*
X371000Y17500D02*
X374000D01*
X372500Y16000D02*
Y19000D01*
X321000Y617500D02*
X324000D01*
X322500Y616000D02*
Y619000D01*
X346000Y567500D02*
X349000D01*
X347500Y566000D02*
Y569000D01*
X346000Y267500D02*
X349000D01*
X347500Y266000D02*
Y269000D01*
X346000Y167500D02*
X349000D01*
X347500Y166000D02*
Y169000D01*
X321000Y117500D02*
X324000D01*
X322500Y116000D02*
Y119000D01*
X321000Y17500D02*
X324000D01*
X322500Y16000D02*
Y19000D01*
X271000Y617500D02*
X274000D01*
X272500Y616000D02*
Y619000D01*
X296000Y267500D02*
X299000D01*
X297500Y266000D02*
Y269000D01*
X296000Y167500D02*
X299000D01*
X297500Y166000D02*
Y169000D01*
X271000Y117500D02*
X274000D01*
X272500Y116000D02*
Y119000D01*
X271000Y17500D02*
X274000D01*
X272500Y16000D02*
Y19000D01*
X221000Y717500D02*
X224000D01*
X222500Y716000D02*
Y719000D01*
X221000Y617500D02*
X224000D01*
X222500Y616000D02*
Y619000D01*
X221000Y517500D02*
X224000D01*
X222500Y516000D02*
Y519000D01*
X246000Y267500D02*
X249000D01*
X247500Y266000D02*
Y269000D01*
X221000Y17500D02*
X224000D01*
X222500Y16000D02*
Y19000D01*
X171000Y717500D02*
X174000D01*
X172500Y716000D02*
Y719000D01*
X171000Y617500D02*
X174000D01*
X172500Y616000D02*
Y619000D01*
X196000Y567500D02*
X199000D01*
X197500Y566000D02*
Y569000D01*
X196000Y267500D02*
X199000D01*
X197500Y266000D02*
Y269000D01*
X171000Y217500D02*
X174000D01*
X172500Y216000D02*
Y219000D01*
X196000Y167500D02*
X199000D01*
X197500Y166000D02*
Y169000D01*
X171000Y117500D02*
X174000D01*
X172500Y116000D02*
Y119000D01*
X171000Y17500D02*
X174000D01*
X172500Y16000D02*
Y19000D01*
X121000Y617500D02*
X124000D01*
X122500Y616000D02*
Y619000D01*
X146000Y267500D02*
X149000D01*
X147500Y266000D02*
Y269000D01*
X121000Y217500D02*
X124000D01*
X122500Y216000D02*
Y219000D01*
X146000Y167500D02*
X149000D01*
X147500Y166000D02*
Y169000D01*
X146000Y67500D02*
X149000D01*
X147500Y66000D02*
Y69000D01*
X121000Y17500D02*
X124000D01*
X122500Y16000D02*
Y19000D01*
X71000Y717500D02*
X74000D01*
X72500Y716000D02*
Y719000D01*
X71000Y617500D02*
X74000D01*
X72500Y616000D02*
Y619000D01*
X96000Y567500D02*
X99000D01*
X97500Y566000D02*
Y569000D01*
X71000Y417500D02*
X74000D01*
X72500Y416000D02*
Y419000D01*
X71000Y317500D02*
X74000D01*
X72500Y316000D02*
Y319000D01*
X96000Y267500D02*
X99000D01*
X97500Y266000D02*
Y269000D01*
X71000Y217500D02*
X74000D01*
X72500Y216000D02*
Y219000D01*
X96000Y167500D02*
X99000D01*
X97500Y166000D02*
Y169000D01*
X96000Y67500D02*
X99000D01*
X97500Y66000D02*
Y69000D01*
X71000Y17500D02*
X74000D01*
X72500Y16000D02*
Y19000D01*
X46000Y667500D02*
X49000D01*
X47500Y666000D02*
Y669000D01*
X21000Y617500D02*
X24000D01*
X22500Y616000D02*
Y619000D01*
X46000Y467500D02*
X49000D01*
X47500Y466000D02*
Y469000D01*
X46000Y367500D02*
X49000D01*
X47500Y366000D02*
Y369000D01*
X46000Y267500D02*
X49000D01*
X47500Y266000D02*
Y269000D01*
X21000Y217500D02*
X24000D01*
X22500Y216000D02*
Y219000D01*
X46000Y167500D02*
X49000D01*
X47500Y166000D02*
Y169000D01*
X46000Y67500D02*
X49000D01*
X47500Y66000D02*
Y69000D01*
X182750Y397500D02*
X185750D01*
X184250Y396000D02*
Y399000D01*
X202750Y397500D02*
X205750D01*
X204250Y396000D02*
Y399000D01*
X222750Y397500D02*
X225750D01*
X224250Y396000D02*
Y399000D01*
X242750Y397500D02*
X245750D01*
X244250Y396000D02*
Y399000D01*
X262750Y397500D02*
X265750D01*
X264250Y396000D02*
Y399000D01*
X182750Y417500D02*
X185750D01*
X184250Y416000D02*
Y419000D01*
X202750Y417500D02*
X205750D01*
X204250Y416000D02*
Y419000D01*
X222750Y417500D02*
X225750D01*
X224250Y416000D02*
Y419000D01*
X242750Y417500D02*
X245750D01*
X244250Y416000D02*
Y419000D01*
X262750Y417500D02*
X265750D01*
X264250Y416000D02*
Y419000D01*
X182750Y437500D02*
X185750D01*
X184250Y436000D02*
Y439000D01*
X202750Y437500D02*
X205750D01*
X204250Y436000D02*
Y439000D01*
X222750Y437500D02*
X225750D01*
X224250Y436000D02*
Y439000D01*
X242750Y437500D02*
X245750D01*
X244250Y436000D02*
Y439000D01*
X262750Y437500D02*
X265750D01*
X264250Y436000D02*
Y439000D01*
X182750Y457500D02*
X185750D01*
X184250Y456000D02*
Y459000D01*
X202750Y457500D02*
X205750D01*
X204250Y456000D02*
Y459000D01*
X222750Y457500D02*
X225750D01*
X224250Y456000D02*
Y459000D01*
X242750Y457500D02*
X245750D01*
X244250Y456000D02*
Y459000D01*
X262750Y457500D02*
X265750D01*
X264250Y456000D02*
Y459000D01*
X182750Y477500D02*
X185750D01*
X184250Y476000D02*
Y479000D01*
X262750Y477500D02*
X265750D01*
X264250Y476000D02*
Y479000D01*
X242750Y477500D02*
X245750D01*
X244250Y476000D02*
Y479000D01*
X222750Y477500D02*
X225750D01*
X224250Y476000D02*
Y479000D01*
X202750Y477500D02*
X205750D01*
X204250Y476000D02*
Y479000D01*
X723000Y259250D02*
X726000D01*
X724500Y257750D02*
Y260750D01*
X477000Y268250D02*
X480000D01*
X478500Y266750D02*
Y269750D01*
X476500Y306250D02*
X479500D01*
X478000Y304750D02*
Y307750D01*
X405750Y269000D02*
X408750D01*
X407250Y267500D02*
Y270500D01*
X397750Y269000D02*
X400750D01*
X399250Y267500D02*
Y270500D01*
X405500Y238250D02*
X408500D01*
X407000Y236750D02*
Y239750D01*
X398000Y238250D02*
X401000D01*
X399500Y236750D02*
Y239750D01*
X387750Y210000D02*
X390750D01*
X389250Y208500D02*
Y211500D01*
X750934Y75410D02*
X753934D01*
X752434Y73910D02*
Y76910D01*
X721184Y68160D02*
X724184D01*
X722684Y66660D02*
Y69660D01*
X694934Y68660D02*
X697934D01*
X696434Y67160D02*
Y70160D01*
X743434Y75410D02*
X746434D01*
X744934Y73910D02*
Y76910D01*
X526934Y154410D02*
X529934D01*
X528434Y152910D02*
Y155910D01*
X498184Y180660D02*
X501184D01*
X499684Y179160D02*
Y182160D01*
Y153660D02*
X502684D01*
X501184Y152160D02*
Y155160D01*
X478934Y210160D02*
X481934D01*
X480434Y208660D02*
Y211660D01*
X441934Y153160D02*
X444934D01*
X443434Y151660D02*
Y154660D01*
X544184Y15910D02*
X547184D01*
X545684Y14410D02*
Y17410D01*
X453184Y11160D02*
X456184D01*
X454684Y9660D02*
Y12660D01*
X529684Y15910D02*
X532684D01*
X531184Y14410D02*
Y17410D01*
X480934Y11160D02*
X483934D01*
X482434Y9660D02*
Y12660D01*
X514684Y15910D02*
X517684D01*
X516184Y14410D02*
Y17410D01*
X466434Y11160D02*
X469434D01*
X467934Y9660D02*
Y12660D01*
X492684Y11160D02*
X495684D01*
X494184Y9660D02*
Y12660D01*
X722934Y234160D02*
X725934D01*
X724434Y232660D02*
Y235660D01*
X622434Y176160D02*
X625434D01*
X623934Y174660D02*
Y177660D01*
X722934Y251660D02*
X725934D01*
X724434Y250160D02*
Y253160D01*
X622684Y148410D02*
X625684D01*
X624184Y146910D02*
Y149910D01*
X722934Y226910D02*
X725934D01*
X724434Y225410D02*
Y228410D01*
X622684Y185410D02*
X625684D01*
X624184Y183910D02*
Y186910D01*
X622684Y157910D02*
X625684D01*
X624184Y156410D02*
Y159410D01*
X234184Y53160D02*
X239184D01*
X236684Y50660D02*
Y55660D01*
X197434Y39660D02*
X200434D01*
X198934Y38160D02*
Y41160D01*
X234434Y116160D02*
X237434D01*
X235934Y114660D02*
Y117660D01*
X264934Y53160D02*
X269934D01*
X267434Y50660D02*
Y55660D01*
X264934Y65160D02*
X269934D01*
X267434Y62660D02*
Y67660D01*
X234184Y65660D02*
X239184D01*
X236684Y63160D02*
Y68160D01*
X235184Y103410D02*
X238184D01*
X236684Y101910D02*
Y104910D01*
X408684Y39660D02*
X411684D01*
X410184Y38160D02*
Y41160D01*
X389000Y302750D02*
X392000D01*
X390500Y301250D02*
Y304250D01*
X389000Y271750D02*
X392000D01*
X390500Y270250D02*
Y273250D01*
X572500Y666000D02*
X575500D01*
X574000Y664500D02*
Y667500D01*
X537500Y665750D02*
X540500D01*
X539000Y664250D02*
Y667250D01*
X506750Y330250D02*
X509750D01*
X508250Y328750D02*
Y331750D01*
X495750Y330500D02*
X498750D01*
X497250Y329000D02*
Y332000D01*
X606500Y558250D02*
X609500D01*
X608000Y556750D02*
Y559750D01*
X600000Y571500D02*
X603000D01*
X601500Y570000D02*
Y573000D01*
X606500Y548250D02*
X609500D01*
X608000Y546750D02*
Y549750D01*
X480730Y661450D02*
X483730D01*
X482230Y659950D02*
Y662950D01*
X533750Y340750D02*
X536750D01*
X535250Y339250D02*
Y342250D01*
X524500Y340750D02*
X527500D01*
X526000Y339250D02*
Y342250D01*
X600000Y560000D02*
X603000D01*
X601500Y558500D02*
Y561500D01*
X562500Y666000D02*
X565500D01*
X564000Y664500D02*
Y667500D01*
X525180Y661450D02*
X528180D01*
X526680Y659950D02*
Y662950D01*
X546750Y665750D02*
X549750D01*
X548250Y664250D02*
Y667250D01*
X343250Y516750D02*
X346250D01*
X344750Y515250D02*
Y518250D01*
X478000Y331000D02*
X481000D01*
X479500Y329500D02*
Y332500D01*
X466500Y331000D02*
X469500D01*
X468000Y329500D02*
Y332500D01*
X234000Y362250D02*
X237000D01*
X235500Y360750D02*
Y363750D01*
X280250Y510250D02*
X283250D01*
X281750Y508750D02*
Y511750D01*
X147250Y460750D02*
X150250D01*
X148750Y459250D02*
Y462250D01*
X147250Y439000D02*
X150250D01*
X148750Y437500D02*
Y440500D01*
X147500Y414250D02*
X150500D01*
X149000Y412750D02*
Y415750D01*
X211000Y362250D02*
X214000D01*
X212500Y360750D02*
Y363750D01*
X147250Y431000D02*
X150250D01*
X148750Y429500D02*
Y432500D01*
X147250Y452000D02*
X150250D01*
X148750Y450500D02*
Y453500D01*
X203500Y362250D02*
X206500D01*
X205000Y360750D02*
Y363750D01*
X295310Y662720D02*
X298310D01*
X296810Y661220D02*
Y664220D01*
X332250Y516750D02*
X335250D01*
X333750Y515250D02*
Y518250D01*
X269910Y662720D02*
X272910D01*
X271410Y661220D02*
Y664220D01*
X336750Y614000D02*
X339750D01*
X338250Y612500D02*
Y615500D01*
X280250Y519750D02*
X283250D01*
X281750Y518250D02*
Y521250D01*
X309000Y516750D02*
X312000D01*
X310500Y515250D02*
Y518250D01*
X319250Y516750D02*
X322250D01*
X320750Y515250D02*
Y518250D01*
X336750Y619750D02*
X339750D01*
X338250Y618250D02*
Y621250D01*
X250000Y326250D02*
X253000D01*
X251500Y324750D02*
Y327750D01*
X242750Y326250D02*
X245750D01*
X244250Y324750D02*
Y327750D01*
X145750Y614000D02*
X148750D01*
X147250Y612500D02*
Y615500D01*
X156750Y619750D02*
X159750D01*
X158250Y618250D02*
Y621250D01*
X156750Y614000D02*
X159750D01*
X158250Y612500D02*
Y615500D01*
X145750Y619750D02*
X148750D01*
X147250Y618250D02*
Y621250D01*
X116240Y662720D02*
X119240D01*
X117740Y661220D02*
Y664220D01*
X347000Y619750D02*
X350000D01*
X348500Y618250D02*
Y621250D01*
X347250Y614000D02*
X350250D01*
X348750Y612500D02*
Y615500D01*
X333500Y427250D02*
X336500D01*
X335000Y425750D02*
Y428750D01*
X332750Y348750D02*
X335750D01*
X334250Y347250D02*
Y350250D01*
X333750Y470250D02*
X336750D01*
X335250Y468750D02*
Y471750D01*
X272250Y327500D02*
X275250D01*
X273750Y326000D02*
Y329000D01*
X290750Y405500D02*
X293750D01*
X292250Y404000D02*
Y407000D01*
X324000Y427250D02*
X327000D01*
X325500Y425750D02*
Y428750D01*
X324000Y348750D02*
X327000D01*
X325500Y347250D02*
Y350250D01*
X323500Y470250D02*
X326500D01*
X325000Y468750D02*
Y471750D01*
X202250Y512750D02*
X205250D01*
X203750Y511250D02*
Y514250D01*
X223750Y362000D02*
X226750D01*
X225250Y360500D02*
Y363500D01*
X127250Y425250D02*
X130250D01*
X128750Y423750D02*
Y426750D01*
X144500Y380750D02*
X147500D01*
X146000Y379250D02*
Y382250D01*
X733250Y556000D02*
X736250D01*
X734750Y554500D02*
Y557500D01*
X742250Y556000D02*
X745250D01*
X743750Y554500D02*
Y557500D01*
X137500Y425250D02*
X140500D01*
X139000Y423750D02*
Y426750D01*
X202250Y521250D02*
X205250D01*
X203750Y519750D02*
Y522750D01*
X90840Y662720D02*
X93840D01*
X92340Y661220D02*
Y664220D01*
M02*
