M48
;Layer_Color=9474304
;FILE_FORMAT=4:4
METRIC,LZ
;TYPE=PLATED
T01F00S00C0.2000
T02F00S00C0.3000
T03F00S00C0.5000
T04F00S00C0.6000
T06F00S00C0.8000
T09F00S00C3.4000
%
T01
X00339184Y0008491
X00346184Y0007791
X00353184Y0008491
X00360184Y0007791
X00367184Y0008491
X00360184Y0009191
X00367184Y0009891
X00360184Y0010591
X00346184
Y0009191
X00353184Y0009891
X00339184
T02
X005725Y000175
X006225
X006725
X007225
X007725
X008225
X008475Y000675
X007975
X007475
X00744934Y0007541
X00752434
X00722684Y0006816
X00696434Y0006866
X007725Y001175
X008225
X00624184Y0014841
Y0015791
X00528434Y0015441
X00501184Y0015366
X00443434Y0015316
X003725Y001175
X003225
X002725
X00235934Y0011616
X00236684Y0010341
X001725Y001175
Y000175
X00198934Y0003966
X002225Y000175
X002725
X003225
X003725
X00410184Y0003966
X00454684Y0001116
X00467934
X004725Y000175
X00482434Y0001116
X00494184
X00516184Y0001591
X00531184
X00545684
X001225Y000175
X000725
X000975Y000675
X001475
X000475
Y001675
X000975
X001475
X001225Y002175
X000725
X000225
X000475Y002675
X000975
X001475
X00146Y0038075
X00149Y0041425
X0014875Y00431
Y00439
Y00452
Y0046075
X00139Y0042525
X0012875
X000725Y004175
X000475Y004675
Y003675
X000725Y003175
X001975Y002675
X002475
X002975
X003475
X003905Y0027175
X0039925Y00269
X0040725
X00407Y0023825
X003995
X0038925Y0021
X003975Y001675
X004475
X004975
X00499684Y0018066
X00480434Y0021016
X005225Y002175
X005475Y002675
X004975
X004785Y0026825
X004475Y002675
X00478Y0030625
X004725Y003175
X00468Y00331
X004795
X0049725Y003305
X0050825Y0033025
X005225Y003175
X00526Y0034075
X0053525
X003975Y003675
X003905Y0030275
X0033425Y0034875
X003255
X0027375Y003275
X002515Y0032625
X0024425
X002355Y0036225
X0022525Y00362
X002125Y0036225
X00205
X0020425Y003975
X0022425
Y004175
X0020425
X0018425
Y003975
Y004375
Y004575
X0020425
Y004375
X0022425
Y004575
X0024425
Y004375
X0026425
Y004575
Y004775
X0024425
X0022425
X0020425
X0018425
X0020375Y0051275
Y0052125
X002225Y005175
X0028175Y0051975
Y0051025
X003105Y0051675
X0032075
X0033375
X0034475
X0033525Y0047025
X00325
X003255Y0042725
X00335
X003725Y004175
X0029225Y004055
X0026425Y003975
X0024425
Y004175
X0026425
X002975Y001675
X003475
X001975
X001725Y002175
X005475Y001675
X005975
X00623934Y0017616
X00624184Y0018541
X006225Y002175
X006725
X00724434Y0022691
Y0023416
Y0025166
X007245Y0025925
X007475Y002675
X007975
X008475
X008725Y003175
Y002175
X007475Y001675
X006975
X006475
Y002675
X005975
X006225Y003175
X006475Y003675
X005975
X006225Y004175
X006725
X007225
X007725
X007975Y004675
X007725Y005175
X007225
X0073475Y00556
X0074375
X00608Y0054825
X005975Y004675
X005725Y002175
X007975Y003675
X008725Y005175
X008475Y005675
X007475
X007725Y006175
X007225
Y007175
X007725
X008225
X007975Y006675
X005975
X00574Y00666
X00564
X006015Y005715
Y0056
X00608Y0055825
X006475Y005675
X005475
X0054825Y0066575
X00539
X0052668Y0066145
X0048223
X004475Y006675
X004225Y006175
X003725
X003485Y0061975
X0034875Y00614
X0033825
Y0061975
X003225Y006175
X002725
X0027141Y0066272
X0029681
X002225Y006175
X001725
X001975Y005675
X003475
X002225Y007175
X001725
X000725
X0009234Y0066272
X0011774
X001225Y006175
X0014725Y0061975
Y00614
X0015825
Y0061975
X000725Y006175
X000225
X000475Y006675
X000975Y005675
T03
X00236684Y0005316
Y0006566
X00267434Y0006516
Y0005316
T04
X002493Y0031025
X002747
X003001
X003255
X003509
X003763
X004017
X004271
T06
X00027934Y0009046
Y0011586
Y0014126
Y0016666
X00028Y002601
Y002855
Y003109
Y003363
Y00394275
Y00419675
Y00445075
Y00470475
Y0052845
Y0055385
X0010825Y0053175
X003245Y00547
X0023825Y005705
X001715Y0056975
X0027268Y0070717
X0029808
X0011901
X0009361
X00028Y0060465
Y0057925
T09
X00865Y00035
X00035
X00865Y00715
X00035
M30
