G04*
G04 #@! TF.GenerationSoftware,Altium Limited,Altium Designer,24.1.2 (44)*
G04*
G04 Layer_Physical_Order=2*
G04 Layer_Color=16711680*
%FSLAX44Y44*%
%MOMM*%
G71*
G04*
G04 #@! TF.SameCoordinates,C3C585C2-8FFB-4C0B-8854-E287818FFA03*
G04*
G04*
G04 #@! TF.FilePolarity,Positive*
G04*
G01*
G75*
%ADD98C,0.3000*%
%ADD99C,0.8000*%
%ADD103C,1.0000*%
%ADD104R,5.0000X3.0000*%
%ADD105C,4.0000*%
%ADD106C,1.3000*%
%ADD107C,0.4000*%
%ADD108C,1.6000*%
%ADD109R,1.6000X1.6000*%
%ADD110C,0.6000*%
%ADD111O,2.0000X0.9000*%
%ADD112O,1.7000X0.9000*%
%ADD113C,1.5000*%
%ADD114C,1.2000*%
%ADD115R,1.2000X1.2000*%
%ADD116R,1.6000X1.6000*%
%ADD117R,4.0640X2.5400*%
%ADD118R,2.5400X4.0640*%
%ADD119C,0.5000*%
%ADD120C,0.8000*%
G36*
X874295Y747120D02*
X878485Y746114D01*
X882466Y744465D01*
X886139Y742214D01*
X889416Y739416D01*
X892214Y736139D01*
X894465Y732466D01*
X896114Y728485D01*
X897120Y724295D01*
X897456Y720024D01*
X897451Y720000D01*
Y30000D01*
X897456Y29976D01*
X897120Y25705D01*
X896114Y21515D01*
X894465Y17535D01*
X892214Y13861D01*
X889416Y10584D01*
X886139Y7786D01*
X882466Y5535D01*
X878485Y3886D01*
X874295Y2880D01*
X870024Y2544D01*
X870000Y2549D01*
X432368D01*
X431789Y3415D01*
X430135Y4520D01*
X428184Y4908D01*
X248184D01*
X246233Y4520D01*
X244579Y3415D01*
X244000Y2549D01*
X30000D01*
X29976Y2544D01*
X25705Y2880D01*
X21515Y3886D01*
X17535Y5535D01*
X13861Y7786D01*
X10584Y10584D01*
X7786Y13861D01*
X5535Y17535D01*
X3886Y21515D01*
X2880Y25705D01*
X2544Y29976D01*
X2549Y30000D01*
Y720000D01*
X2544Y720024D01*
X2880Y724295D01*
X3886Y728485D01*
X5535Y732466D01*
X7786Y736139D01*
X10584Y739416D01*
X13861Y742214D01*
X17535Y744465D01*
X21515Y746114D01*
X25705Y747120D01*
X29976Y747456D01*
X30000Y747451D01*
X870000D01*
X870024Y747456D01*
X874295Y747120D01*
D02*
G37*
%LPC*%
G36*
X867167Y737000D02*
X862833D01*
X858583Y736154D01*
X854579Y734496D01*
X850976Y732088D01*
X847912Y729024D01*
X845504Y725421D01*
X843846Y721417D01*
X843000Y717167D01*
Y712833D01*
X843846Y708583D01*
X845504Y704579D01*
X847912Y700976D01*
X850976Y697912D01*
X854579Y695504D01*
X858583Y693845D01*
X862833Y693000D01*
X867167D01*
X871417Y693845D01*
X875421Y695504D01*
X879024Y697912D01*
X882088Y700976D01*
X884496Y704579D01*
X886154Y708583D01*
X887000Y712833D01*
Y717167D01*
X886154Y721417D01*
X884496Y725421D01*
X882088Y729024D01*
X879024Y732088D01*
X875421Y734496D01*
X871417Y736154D01*
X867167Y737000D01*
D02*
G37*
G36*
X37167D02*
X32833D01*
X28583Y736154D01*
X24579Y734496D01*
X20976Y732088D01*
X17911Y729024D01*
X15504Y725421D01*
X13845Y721417D01*
X13000Y717167D01*
Y712833D01*
X13845Y708583D01*
X15504Y704579D01*
X17911Y700976D01*
X20976Y697912D01*
X24579Y695504D01*
X28583Y693845D01*
X32833Y693000D01*
X37167D01*
X41417Y693845D01*
X45421Y695504D01*
X49024Y697912D01*
X52088Y700976D01*
X54496Y704579D01*
X56154Y708583D01*
X57000Y712833D01*
Y717167D01*
X56154Y721417D01*
X54496Y725421D01*
X52088Y729024D01*
X49024Y732088D01*
X45421Y734496D01*
X41417Y736154D01*
X37167Y737000D01*
D02*
G37*
G36*
X527536Y667950D02*
X525824D01*
X524397Y667568D01*
X484513D01*
X483086Y667950D01*
X481374D01*
X479721Y667507D01*
X478239Y666651D01*
X477029Y665441D01*
X476173Y663959D01*
X475730Y662306D01*
Y660594D01*
X476173Y658941D01*
X477029Y657459D01*
X478239Y656249D01*
X479721Y655393D01*
X481374Y654950D01*
X483086D01*
X484513Y655332D01*
X524397D01*
X525824Y654950D01*
X527536D01*
X529189Y655393D01*
X530671Y656249D01*
X531881Y657459D01*
X532737Y658941D01*
X533180Y660594D01*
Y662306D01*
X532737Y663959D01*
X531881Y665441D01*
X530671Y666651D01*
X529189Y667507D01*
X527536Y667950D01*
D02*
G37*
G36*
X299396Y717170D02*
X296763D01*
X294220Y716488D01*
X291940Y715172D01*
X290078Y713310D01*
X288762Y711030D01*
X288080Y708487D01*
Y705854D01*
X288762Y703310D01*
X290078Y701030D01*
X291020Y700088D01*
Y666673D01*
X290695Y666250D01*
X289990Y664547D01*
X289750Y662720D01*
X289990Y660893D01*
X290695Y659190D01*
X291818Y657728D01*
X293280Y656606D01*
X294983Y655900D01*
X296810Y655660D01*
X298637Y655900D01*
X300340Y656606D01*
X301802Y657728D01*
X303072Y658998D01*
X304195Y660460D01*
X304900Y662163D01*
X305140Y663990D01*
Y700088D01*
X306082Y701030D01*
X307398Y703310D01*
X308080Y705854D01*
Y708487D01*
X307398Y711030D01*
X306082Y713310D01*
X304220Y715172D01*
X301940Y716488D01*
X299396Y717170D01*
D02*
G37*
G36*
X282680D02*
X262680D01*
Y697170D01*
X264350D01*
Y662720D01*
X264590Y660893D01*
X265296Y659190D01*
X266418Y657728D01*
X267880Y656606D01*
X269583Y655900D01*
X271410Y655660D01*
X273237Y655900D01*
X274940Y656606D01*
X276402Y657728D01*
X277525Y659190D01*
X278230Y660893D01*
X278470Y662720D01*
Y697170D01*
X282680D01*
Y717170D01*
D02*
G37*
G36*
X120326D02*
X117694D01*
X115150Y716488D01*
X112870Y715172D01*
X111008Y713310D01*
X109691Y711030D01*
X109010Y708487D01*
Y705854D01*
X109691Y703310D01*
X111008Y701030D01*
X111950Y700088D01*
Y666673D01*
X111625Y666250D01*
X110920Y664547D01*
X110680Y662720D01*
X110920Y660893D01*
X111625Y659190D01*
X112748Y657728D01*
X114210Y656606D01*
X115913Y655900D01*
X117740Y655660D01*
X119567Y655900D01*
X121270Y656606D01*
X122732Y657728D01*
X124002Y658998D01*
X125125Y660460D01*
X125830Y662163D01*
X126070Y663990D01*
Y700088D01*
X127012Y701030D01*
X128329Y703310D01*
X129010Y705854D01*
Y708487D01*
X128329Y711030D01*
X127012Y713310D01*
X125150Y715172D01*
X122870Y716488D01*
X120326Y717170D01*
D02*
G37*
G36*
X103610D02*
X83610D01*
Y697170D01*
X85280D01*
Y662720D01*
X85520Y660893D01*
X86226Y659190D01*
X87348Y657728D01*
X88810Y656606D01*
X90513Y655900D01*
X92340Y655660D01*
X94167Y655900D01*
X95870Y656606D01*
X97332Y657728D01*
X98455Y659190D01*
X99160Y660893D01*
X99400Y662720D01*
Y697170D01*
X103610D01*
Y717170D01*
D02*
G37*
G36*
X854220Y682100D02*
X809580D01*
Y652700D01*
X854220D01*
Y682100D01*
D02*
G37*
G36*
X821200Y638920D02*
X791800D01*
Y594280D01*
X821200D01*
Y638920D01*
D02*
G37*
G36*
X239435Y579500D02*
X237065D01*
X234776Y578887D01*
X232724Y577702D01*
X231048Y576026D01*
X229863Y573974D01*
X229250Y571685D01*
Y569315D01*
X229863Y567026D01*
X231048Y564974D01*
X232724Y563298D01*
X234776Y562113D01*
X237065Y561500D01*
X239435D01*
X241724Y562113D01*
X243776Y563298D01*
X245452Y564974D01*
X246637Y567026D01*
X247250Y569315D01*
Y571685D01*
X246637Y573974D01*
X245452Y576026D01*
X243776Y577702D01*
X241724Y578887D01*
X239435Y579500D01*
D02*
G37*
G36*
X172685Y578750D02*
X170315D01*
X168026Y578137D01*
X165974Y576952D01*
X164298Y575276D01*
X163113Y573224D01*
X162500Y570935D01*
Y568565D01*
X163113Y566276D01*
X164298Y564224D01*
X165974Y562548D01*
X168026Y561363D01*
X170315Y560750D01*
X172685D01*
X174974Y561363D01*
X177026Y562548D01*
X178702Y564224D01*
X179887Y566276D01*
X180500Y568565D01*
Y570935D01*
X179887Y573224D01*
X178702Y575276D01*
X177026Y576952D01*
X174974Y578137D01*
X172685Y578750D01*
D02*
G37*
G36*
X325685Y556000D02*
X323315D01*
X321026Y555387D01*
X318974Y554202D01*
X317298Y552526D01*
X316113Y550474D01*
X315500Y548185D01*
Y545815D01*
X316113Y543526D01*
X317298Y541474D01*
X318974Y539798D01*
X321026Y538613D01*
X323315Y538000D01*
X325685D01*
X327974Y538613D01*
X330026Y539798D01*
X331702Y541474D01*
X332887Y543526D01*
X333500Y545815D01*
Y548185D01*
X332887Y550474D01*
X331702Y552526D01*
X330026Y554202D01*
X327974Y555387D01*
X325685Y556000D01*
D02*
G37*
G36*
X109435Y540750D02*
X107065D01*
X104776Y540137D01*
X102724Y538952D01*
X101048Y537276D01*
X99863Y535224D01*
X99250Y532935D01*
Y530565D01*
X99863Y528276D01*
X101048Y526224D01*
X102724Y524548D01*
X104776Y523363D01*
X107065Y522750D01*
X109435D01*
X111724Y523363D01*
X113776Y524548D01*
X115452Y526224D01*
X116637Y528276D01*
X117250Y530565D01*
Y532935D01*
X116637Y535224D01*
X115452Y537276D01*
X113776Y538952D01*
X111724Y540137D01*
X109435Y540750D01*
D02*
G37*
G36*
X29317Y538450D02*
X26683D01*
X24140Y537769D01*
X21860Y536452D01*
X19998Y534590D01*
X18681Y532310D01*
X18000Y529767D01*
Y527133D01*
X18681Y524590D01*
X19998Y522310D01*
X21860Y520448D01*
X24140Y519132D01*
X26683Y518450D01*
X29317D01*
X31860Y519132D01*
X34140Y520448D01*
X36002Y522310D01*
X37318Y524590D01*
X38000Y527133D01*
Y529767D01*
X37318Y532310D01*
X36002Y534590D01*
X34140Y536452D01*
X31860Y537769D01*
X29317Y538450D01*
D02*
G37*
G36*
X75251Y536250D02*
X72749D01*
X70333Y535603D01*
X68167Y534352D01*
X66398Y532583D01*
X65147Y530417D01*
X64500Y528001D01*
Y525499D01*
X65147Y523083D01*
X66398Y520917D01*
X68167Y519148D01*
X70333Y517897D01*
X72749Y517250D01*
X75251D01*
X77667Y517897D01*
X79833Y519148D01*
X81602Y520917D01*
X82853Y523083D01*
X83500Y525499D01*
Y528001D01*
X82853Y530417D01*
X81602Y532583D01*
X79833Y534352D01*
X77667Y535603D01*
X75251Y536250D01*
D02*
G37*
G36*
X868640Y549650D02*
X814640D01*
Y515650D01*
X868640D01*
Y549650D01*
D02*
G37*
G36*
X29317Y589250D02*
X26683D01*
X24140Y588568D01*
X21860Y587252D01*
X19998Y585390D01*
X18681Y583110D01*
X18000Y580567D01*
Y577934D01*
X18681Y575390D01*
X19998Y573110D01*
X21860Y571248D01*
X24140Y569931D01*
X26683Y569250D01*
X29317D01*
X31860Y569931D01*
X32868Y570513D01*
X34904Y568477D01*
X36062Y567703D01*
X37428Y567431D01*
X54931D01*
Y505796D01*
X53661Y505085D01*
X53569Y505141D01*
Y550993D01*
X53297Y552358D01*
X52523Y553516D01*
X49666Y556373D01*
X48508Y557147D01*
X47143Y557419D01*
X37397D01*
X37318Y557710D01*
X36002Y559990D01*
X34140Y561852D01*
X31860Y563168D01*
X29317Y563850D01*
X26683D01*
X24140Y563168D01*
X21860Y561852D01*
X19998Y559990D01*
X18681Y557710D01*
X18000Y555167D01*
Y552533D01*
X18681Y549990D01*
X19998Y547710D01*
X21860Y545848D01*
X24140Y544532D01*
X26683Y543850D01*
X29317D01*
X31860Y544532D01*
X34140Y545848D01*
X36002Y547710D01*
X37318Y549990D01*
X37397Y550281D01*
X45665D01*
X46431Y549515D01*
Y502500D01*
X46703Y501134D01*
X47477Y499977D01*
X97977Y449477D01*
X99134Y448703D01*
X100500Y448431D01*
X143305D01*
X143549Y448009D01*
X144759Y446799D01*
X145800Y446198D01*
X145822Y446142D01*
Y444858D01*
X145800Y444802D01*
X144759Y444201D01*
X143549Y442991D01*
X143305Y442569D01*
X38996D01*
X38000Y443759D01*
Y446392D01*
X37318Y448935D01*
X36002Y451215D01*
X34140Y453077D01*
X31860Y454394D01*
X29317Y455075D01*
X26683D01*
X24140Y454394D01*
X21860Y453077D01*
X19998Y451215D01*
X18681Y448935D01*
X18000Y446392D01*
Y443759D01*
X18681Y441215D01*
X19998Y438935D01*
X21860Y437073D01*
X24140Y435756D01*
X26683Y435075D01*
X29317D01*
X31860Y435756D01*
X33505Y436706D01*
X33734Y436477D01*
X34892Y435703D01*
X36257Y435431D01*
X51922D01*
X52307Y434161D01*
X51727Y433773D01*
X41197Y423244D01*
X37397D01*
X37318Y423535D01*
X36002Y425815D01*
X34140Y427677D01*
X31860Y428993D01*
X29317Y429675D01*
X26683D01*
X24140Y428993D01*
X21860Y427677D01*
X19998Y425815D01*
X18681Y423535D01*
X18000Y420992D01*
Y418358D01*
X18681Y415815D01*
X19998Y413535D01*
X21860Y411673D01*
X24140Y410356D01*
X26683Y409675D01*
X29317D01*
X31860Y410356D01*
X34140Y411673D01*
X36002Y413535D01*
X37318Y415815D01*
X37397Y416106D01*
X42675D01*
X44041Y416378D01*
X45198Y417152D01*
X55728Y427681D01*
X143160D01*
X143549Y427009D01*
X144759Y425799D01*
X146241Y424943D01*
X147894Y424500D01*
X149606D01*
X151259Y424943D01*
X152741Y425799D01*
X153951Y427009D01*
X154807Y428491D01*
X155250Y430144D01*
Y431856D01*
X154807Y433509D01*
X153951Y434991D01*
X153942Y435000D01*
X153951Y435009D01*
X154807Y436491D01*
X155250Y438144D01*
Y439856D01*
X154807Y441509D01*
X153951Y442991D01*
X152741Y444201D01*
X151700Y444802D01*
X151678Y444858D01*
Y446142D01*
X151700Y446198D01*
X152741Y446799D01*
X153951Y448009D01*
X154807Y449491D01*
X155250Y451144D01*
Y452856D01*
X154807Y454509D01*
X153951Y455991D01*
X153567Y456375D01*
X153951Y456759D01*
X154807Y458241D01*
X155250Y459894D01*
Y461606D01*
X154807Y463259D01*
X153951Y464741D01*
X152741Y465951D01*
X151259Y466807D01*
X149606Y467250D01*
X147894D01*
X146241Y466807D01*
X144759Y465951D01*
X143549Y464741D01*
X143305Y464319D01*
X103228D01*
X62069Y505478D01*
Y569243D01*
X61797Y570608D01*
X61023Y571766D01*
X59266Y573523D01*
X58108Y574297D01*
X56743Y574569D01*
X38906D01*
X37480Y575994D01*
X38000Y577934D01*
Y580567D01*
X37318Y583110D01*
X36002Y585390D01*
X34140Y587252D01*
X31860Y588568D01*
X29317Y589250D01*
D02*
G37*
G36*
X868640Y499650D02*
X814640D01*
Y465650D01*
X868640D01*
Y499650D01*
D02*
G37*
G36*
X585500Y535260D02*
X419500D01*
Y414260D01*
X585500D01*
Y535260D01*
D02*
G37*
G36*
X149856Y420750D02*
X148144D01*
X146491Y420307D01*
X145009Y419451D01*
X143799Y418241D01*
X143555Y417819D01*
X94007D01*
X92642Y417547D01*
X91484Y416773D01*
X89727Y415016D01*
X88953Y413858D01*
X88681Y412493D01*
Y339569D01*
X38000D01*
Y346300D01*
X18000D01*
Y326300D01*
X38000D01*
Y332431D01*
X90493D01*
X91858Y332703D01*
X93016Y333477D01*
X94773Y335234D01*
X95547Y336392D01*
X95819Y337757D01*
Y410681D01*
X143555D01*
X143799Y410259D01*
X145009Y409049D01*
X146491Y408193D01*
X148144Y407750D01*
X149856D01*
X151509Y408193D01*
X152991Y409049D01*
X154201Y410259D01*
X155057Y411741D01*
X155500Y413394D01*
Y415106D01*
X155057Y416759D01*
X154201Y418241D01*
X152991Y419451D01*
X151509Y420307D01*
X149856Y420750D01*
D02*
G37*
G36*
X75726Y403775D02*
X73224D01*
X70808Y403128D01*
X68642Y401877D01*
X66873Y400108D01*
X65622Y397942D01*
X64975Y395526D01*
Y393024D01*
X65622Y390608D01*
X66873Y388442D01*
X68642Y386673D01*
X70808Y385423D01*
X73224Y384775D01*
X75726D01*
X78142Y385423D01*
X80308Y386673D01*
X82077Y388442D01*
X83328Y390608D01*
X83975Y393024D01*
Y395526D01*
X83328Y397942D01*
X82077Y400108D01*
X80308Y401877D01*
X78142Y403128D01*
X75726Y403775D01*
D02*
G37*
G36*
X29317Y404275D02*
X26683D01*
X24140Y403593D01*
X21860Y402277D01*
X19998Y400415D01*
X18681Y398135D01*
X18000Y395592D01*
Y392958D01*
X18681Y390415D01*
X19998Y388135D01*
X21860Y386273D01*
X24140Y384957D01*
X26683Y384275D01*
X29317D01*
X31860Y384957D01*
X34140Y386273D01*
X36002Y388135D01*
X37318Y390415D01*
X38000Y392958D01*
Y395592D01*
X37318Y398135D01*
X36002Y400415D01*
X34140Y402277D01*
X31860Y403593D01*
X29317Y404275D01*
D02*
G37*
G36*
X146856Y387250D02*
X145144D01*
X143491Y386807D01*
X142009Y385951D01*
X140799Y384741D01*
X140555Y384319D01*
X127757D01*
X126392Y384047D01*
X125234Y383273D01*
X123477Y381516D01*
X122703Y380358D01*
X122431Y378993D01*
Y314069D01*
X37504D01*
X37318Y314760D01*
X36002Y317040D01*
X34140Y318902D01*
X31860Y320219D01*
X29317Y320900D01*
X26683D01*
X24140Y320219D01*
X21860Y318902D01*
X19998Y317040D01*
X18681Y314760D01*
X18000Y312217D01*
Y309583D01*
X18681Y307040D01*
X19998Y304760D01*
X21860Y302898D01*
X24140Y301582D01*
X26683Y300900D01*
X29317D01*
X31860Y301582D01*
X34140Y302898D01*
X36002Y304760D01*
X37256Y306931D01*
X124243D01*
X125608Y307203D01*
X126766Y307977D01*
X128523Y309734D01*
X129297Y310892D01*
X129569Y312257D01*
Y377181D01*
X140555D01*
X140799Y376759D01*
X142009Y375549D01*
X143491Y374693D01*
X145144Y374250D01*
X146856D01*
X148509Y374693D01*
X149991Y375549D01*
X151201Y376759D01*
X152057Y378241D01*
X152500Y379894D01*
Y381606D01*
X152057Y383259D01*
X151201Y384741D01*
X149991Y385951D01*
X148509Y386807D01*
X146856Y387250D01*
D02*
G37*
G36*
X236356Y368750D02*
X234644D01*
X232991Y368307D01*
X231509Y367451D01*
X230299Y366241D01*
X230213Y366230D01*
X229241Y367201D01*
X227759Y368057D01*
X226106Y368500D01*
X224394D01*
X222741Y368057D01*
X221259Y367201D01*
X220049Y365991D01*
X219666Y365327D01*
X218214Y365353D01*
X217701Y366241D01*
X216491Y367451D01*
X215009Y368307D01*
X213356Y368750D01*
X211644D01*
X209991Y368307D01*
X208750Y367590D01*
X207509Y368307D01*
X205856Y368750D01*
X204144D01*
X202491Y368307D01*
X201009Y367451D01*
X199799Y366241D01*
X198943Y364759D01*
X198500Y363106D01*
Y361394D01*
X198943Y359741D01*
X199799Y358259D01*
X201009Y357049D01*
X201814Y356584D01*
Y355867D01*
X202086Y354502D01*
X202859Y353344D01*
X209931Y346272D01*
Y110492D01*
X209865Y110160D01*
X210137Y108795D01*
X210911Y107637D01*
X217411Y101137D01*
X218568Y100364D01*
X219934Y100092D01*
X231094D01*
X231483Y99419D01*
X232693Y98209D01*
X234175Y97353D01*
X235828Y96910D01*
X237540D01*
X239193Y97353D01*
X240675Y98209D01*
X241885Y99419D01*
X242741Y100901D01*
X243184Y102555D01*
Y104266D01*
X242741Y105919D01*
X241885Y107401D01*
X240675Y108612D01*
X239537Y109269D01*
X239395Y110327D01*
X239484Y110704D01*
X239925Y110959D01*
X241135Y112169D01*
X241991Y113652D01*
X242434Y115305D01*
Y117016D01*
X241991Y118669D01*
X241135Y120151D01*
X239925Y121362D01*
X238443Y122217D01*
X236790Y122660D01*
X235078D01*
X233425Y122217D01*
X231943Y121362D01*
X230733Y120151D01*
X229440Y120452D01*
X223319Y126573D01*
Y354473D01*
X224293Y355419D01*
X224514Y355500D01*
X226106D01*
X226577Y355626D01*
X251227Y330977D01*
X252384Y330203D01*
X253750Y329931D01*
X274757D01*
X276428Y328261D01*
X276453Y328134D01*
X277227Y326977D01*
X292269Y311934D01*
X292100Y311303D01*
Y309197D01*
X292645Y307162D01*
X293698Y305338D01*
X295188Y303848D01*
X297012Y302795D01*
X299047Y302250D01*
X301153D01*
X303188Y302795D01*
X305012Y303848D01*
X306502Y305338D01*
X307555Y307162D01*
X308100Y309197D01*
Y311303D01*
X307555Y313338D01*
X306502Y315162D01*
X305012Y316652D01*
X303188Y317705D01*
X301153Y318250D01*
X299047D01*
X297012Y317705D01*
X296746Y317551D01*
X283072Y331225D01*
X283047Y331351D01*
X282273Y332509D01*
X280274Y334508D01*
X280760Y335681D01*
X294272D01*
X317743Y312210D01*
X317500Y311303D01*
Y309197D01*
X318045Y307162D01*
X319098Y305338D01*
X320588Y303848D01*
X322412Y302795D01*
X324447Y302250D01*
X326553D01*
X328588Y302795D01*
X330412Y303848D01*
X331902Y305338D01*
X332955Y307162D01*
X333500Y309197D01*
Y311303D01*
X332955Y313338D01*
X331902Y315162D01*
X330412Y316652D01*
X328588Y317705D01*
X326553Y318250D01*
X324447D01*
X322412Y317705D01*
X322368Y317679D01*
X298273Y341773D01*
X297116Y342547D01*
X295750Y342819D01*
X259978D01*
X241874Y360923D01*
X242000Y361394D01*
Y363106D01*
X241557Y364759D01*
X240701Y366241D01*
X239491Y367451D01*
X238009Y368307D01*
X236356Y368750D01*
D02*
G37*
G36*
X448131Y379064D02*
X445629D01*
X443213Y378416D01*
X441047Y377166D01*
X439278Y375397D01*
X438027Y373231D01*
X437380Y370814D01*
Y368313D01*
X438027Y365897D01*
X439278Y363731D01*
X441047Y361962D01*
X443213Y360711D01*
X445629Y360064D01*
X448131D01*
X450547Y360711D01*
X452713Y361962D01*
X454482Y363731D01*
X455733Y365897D01*
X456380Y368313D01*
Y370814D01*
X455733Y373231D01*
X454482Y375397D01*
X452713Y377166D01*
X450547Y378416D01*
X448131Y379064D01*
D02*
G37*
G36*
X402753Y318250D02*
X400647D01*
X398612Y317705D01*
X396788Y316652D01*
X395299Y315162D01*
X394245Y313338D01*
X393700Y311303D01*
Y309874D01*
X393558Y309655D01*
X392592Y308970D01*
X392484Y308948D01*
X391356Y309250D01*
X389644D01*
X387991Y308807D01*
X386509Y307951D01*
X385299Y306741D01*
X384443Y305259D01*
X384000Y303606D01*
Y301894D01*
X384443Y300241D01*
X385299Y298759D01*
X386509Y297549D01*
X386931Y297305D01*
Y277195D01*
X386509Y276951D01*
X385299Y275741D01*
X384443Y274259D01*
X384000Y272606D01*
Y270894D01*
X384443Y269241D01*
X385299Y267759D01*
X386509Y266549D01*
X387991Y265693D01*
X389644Y265250D01*
X391356D01*
X393009Y265693D01*
X394491Y266549D01*
X395701Y267759D01*
X396557Y269241D01*
X397000Y270894D01*
Y272606D01*
X396557Y274259D01*
X395701Y275741D01*
X394491Y276951D01*
X394069Y277195D01*
Y297305D01*
X394491Y297549D01*
X395701Y298759D01*
X396557Y300241D01*
X397000Y301894D01*
Y302260D01*
X398270Y302993D01*
X398612Y302795D01*
X400647Y302250D01*
X402753D01*
X404788Y302795D01*
X406612Y303848D01*
X408102Y305338D01*
X409155Y307162D01*
X409700Y309197D01*
Y311303D01*
X409155Y313338D01*
X408102Y315162D01*
X406612Y316652D01*
X404788Y317705D01*
X402753Y318250D01*
D02*
G37*
G36*
X293106Y412000D02*
X291394D01*
X289741Y411557D01*
X288259Y410701D01*
X287049Y409491D01*
X286193Y408009D01*
X285750Y406356D01*
Y404644D01*
X286193Y402991D01*
X287049Y401509D01*
X288259Y400299D01*
X288681Y400055D01*
Y362500D01*
X288953Y361134D01*
X289727Y359977D01*
X323477Y326227D01*
X324634Y325453D01*
X326000Y325181D01*
X417772D01*
X423531Y319422D01*
Y317427D01*
X422188Y316652D01*
X420698Y315162D01*
X419645Y313338D01*
X419100Y311303D01*
Y309197D01*
X419645Y307162D01*
X420698Y305338D01*
X422188Y303848D01*
X424012Y302795D01*
X426047Y302250D01*
X428153D01*
X430188Y302795D01*
X432012Y303848D01*
X433502Y305338D01*
X434555Y307162D01*
X435100Y309197D01*
Y311303D01*
X434555Y313338D01*
X433502Y315162D01*
X432012Y316652D01*
X430669Y317427D01*
Y320900D01*
X430397Y322266D01*
X429623Y323423D01*
X421773Y331273D01*
X420616Y332047D01*
X419250Y332319D01*
X327478D01*
X295819Y363978D01*
Y400055D01*
X296241Y400299D01*
X297451Y401509D01*
X298307Y402991D01*
X298750Y404644D01*
Y406356D01*
X298307Y408009D01*
X297451Y409491D01*
X296241Y410701D01*
X294759Y411557D01*
X293106Y412000D01*
D02*
G37*
G36*
X377353Y318250D02*
X375247D01*
X373212Y317705D01*
X371388Y316652D01*
X369898Y315162D01*
X368845Y313338D01*
X368300Y311303D01*
Y309197D01*
X368845Y307162D01*
X369898Y305338D01*
X371388Y303848D01*
X373212Y302795D01*
X375247Y302250D01*
X377353D01*
X379388Y302795D01*
X381212Y303848D01*
X382702Y305338D01*
X383755Y307162D01*
X384300Y309197D01*
Y311303D01*
X383755Y313338D01*
X382702Y315162D01*
X381212Y316652D01*
X379388Y317705D01*
X377353Y318250D01*
D02*
G37*
G36*
X351953D02*
X349847D01*
X347812Y317705D01*
X345988Y316652D01*
X344498Y315162D01*
X343445Y313338D01*
X342900Y311303D01*
Y309197D01*
X343445Y307162D01*
X344498Y305338D01*
X345988Y303848D01*
X347812Y302795D01*
X349847Y302250D01*
X351953D01*
X353988Y302795D01*
X355812Y303848D01*
X357302Y305338D01*
X358355Y307162D01*
X358900Y309197D01*
Y311303D01*
X358355Y313338D01*
X357302Y315162D01*
X355812Y316652D01*
X353988Y317705D01*
X351953Y318250D01*
D02*
G37*
G36*
X257300D02*
X241300D01*
Y311303D01*
Y302250D01*
X257300D01*
Y318250D01*
D02*
G37*
G36*
X478856Y312750D02*
X477144D01*
X475491Y312307D01*
X474009Y311451D01*
X472799Y310241D01*
X471943Y308759D01*
X471500Y307106D01*
Y305394D01*
X471943Y303741D01*
X472383Y302980D01*
Y270533D01*
X472000Y269106D01*
Y267394D01*
X472443Y265741D01*
X473299Y264259D01*
X474509Y263049D01*
X475991Y262193D01*
X477644Y261750D01*
X479356D01*
X481009Y262193D01*
X482491Y263049D01*
X483701Y264259D01*
X484557Y265741D01*
X485000Y267394D01*
Y269106D01*
X484618Y270533D01*
Y305750D01*
X484500Y306341D01*
Y307106D01*
X484057Y308759D01*
X483201Y310241D01*
X481991Y311451D01*
X480509Y312307D01*
X478856Y312750D01*
D02*
G37*
G36*
X29317Y270100D02*
X26683D01*
X24140Y269419D01*
X21860Y268102D01*
X19998Y266240D01*
X18681Y263960D01*
X18000Y261417D01*
Y258783D01*
X18681Y256240D01*
X19998Y253960D01*
X21860Y252098D01*
X24140Y250781D01*
X26683Y250100D01*
X29317D01*
X31860Y250781D01*
X34140Y252098D01*
X36002Y253960D01*
X37318Y256240D01*
X38000Y258783D01*
Y261417D01*
X37318Y263960D01*
X36002Y266240D01*
X34140Y268102D01*
X31860Y269419D01*
X29317Y270100D01*
D02*
G37*
G36*
X481290Y216660D02*
X479578D01*
X477925Y216217D01*
X476443Y215362D01*
X475233Y214151D01*
X474943Y213649D01*
X394649D01*
X394451Y213991D01*
X393241Y215201D01*
X391759Y216057D01*
X390106Y216500D01*
X388394D01*
X386741Y216057D01*
X385259Y215201D01*
X384049Y213991D01*
X383193Y212509D01*
X382750Y210856D01*
Y209144D01*
X383193Y207491D01*
X384049Y206009D01*
X385259Y204799D01*
X386741Y203943D01*
X388394Y203500D01*
X390106D01*
X391759Y203943D01*
X393241Y204799D01*
X394451Y206009D01*
X394742Y206512D01*
X475035D01*
X475233Y206169D01*
X476443Y204959D01*
X477925Y204103D01*
X479578Y203660D01*
X481290D01*
X482943Y204103D01*
X484425Y204959D01*
X485635Y206169D01*
X486491Y207652D01*
X486934Y209305D01*
Y211016D01*
X486491Y212669D01*
X485635Y214151D01*
X484425Y215362D01*
X482943Y216217D01*
X481290Y216660D01*
D02*
G37*
G36*
X843417Y195550D02*
X841311D01*
X839276Y195005D01*
X837452Y193952D01*
X835963Y192463D01*
X834909Y190638D01*
X834364Y188604D01*
Y186497D01*
X834909Y184463D01*
X835963Y182638D01*
X837452Y181149D01*
X839276Y180096D01*
X841311Y179550D01*
X843417D01*
X845452Y180096D01*
X847276Y181149D01*
X848766Y182638D01*
X849819Y184463D01*
X850364Y186497D01*
Y188604D01*
X849819Y190638D01*
X848766Y192463D01*
X847276Y193952D01*
X845452Y195005D01*
X843417Y195550D01*
D02*
G37*
G36*
X502040Y160160D02*
X500328D01*
X498675Y159717D01*
X497193Y158862D01*
X495983Y157651D01*
X495594Y156979D01*
X448735D01*
X448635Y157151D01*
X447425Y158362D01*
X445943Y159217D01*
X444290Y159660D01*
X442578D01*
X440925Y159217D01*
X439443Y158362D01*
X438233Y157151D01*
X437377Y155669D01*
X436934Y154016D01*
Y152305D01*
X437377Y150652D01*
X438233Y149169D01*
X439443Y147959D01*
X440925Y147103D01*
X442578Y146660D01*
X444290D01*
X445943Y147103D01*
X447425Y147959D01*
X448635Y149169D01*
X449024Y149842D01*
X495883D01*
X495983Y149669D01*
X497193Y148459D01*
X498675Y147603D01*
X500328Y147160D01*
X502040D01*
X503693Y147603D01*
X505175Y148459D01*
X506385Y149669D01*
X507241Y151152D01*
X507684Y152805D01*
Y154516D01*
X507241Y156169D01*
X506385Y157651D01*
X505175Y158862D01*
X503693Y159717D01*
X502040Y160160D01*
D02*
G37*
G36*
X500540Y187160D02*
X498828D01*
X497175Y186717D01*
X495693Y185862D01*
X494483Y184651D01*
X493627Y183169D01*
X493184Y181516D01*
Y179805D01*
X493627Y178151D01*
X494483Y176669D01*
X495693Y175459D01*
X497175Y174603D01*
X498828Y174160D01*
X500540D01*
X501011Y174287D01*
X522004Y153294D01*
X522377Y151902D01*
X523233Y150419D01*
X524443Y149209D01*
X525925Y148353D01*
X527578Y147910D01*
X529290D01*
X530943Y148353D01*
X532425Y149209D01*
X533635Y150419D01*
X534491Y151902D01*
X534934Y153555D01*
Y155266D01*
X534491Y156919D01*
X533635Y158401D01*
X532425Y159612D01*
X530943Y160467D01*
X529290Y160910D01*
X527578D01*
X525925Y160467D01*
X525290Y160101D01*
X506058Y179333D01*
X506184Y179805D01*
Y181516D01*
X505741Y183169D01*
X504885Y184651D01*
X503675Y185862D01*
X502193Y186717D01*
X500540Y187160D01*
D02*
G37*
G36*
X843417Y137750D02*
X841311D01*
X839276Y137205D01*
X837452Y136152D01*
X835962Y134663D01*
X834909Y132838D01*
X834364Y130804D01*
Y128697D01*
X834909Y126663D01*
X835962Y124838D01*
X837452Y123349D01*
X839276Y122296D01*
X841311Y121750D01*
X843417D01*
X845452Y122296D01*
X847276Y123349D01*
X848766Y124838D01*
X849819Y126663D01*
X850364Y128697D01*
Y130804D01*
X849819Y132838D01*
X848766Y134663D01*
X847276Y136152D01*
X845452Y137205D01*
X843417Y137750D01*
D02*
G37*
G36*
X29251Y100460D02*
X26617D01*
X24074Y99779D01*
X21794Y98462D01*
X19932Y96601D01*
X18615Y94320D01*
X17934Y91777D01*
Y89144D01*
X18615Y86601D01*
X19932Y84320D01*
X21794Y82458D01*
X24074Y81142D01*
X26617Y80460D01*
X29251D01*
X31794Y81142D01*
X34074Y82458D01*
X35936Y84320D01*
X37253Y86601D01*
X37934Y89144D01*
Y91777D01*
X37253Y94320D01*
X35936Y96601D01*
X34074Y98462D01*
X31794Y99779D01*
X29251Y100460D01*
D02*
G37*
G36*
X697290Y75160D02*
X695578D01*
X693925Y74717D01*
X692443Y73862D01*
X691233Y72651D01*
X690377Y71169D01*
X689934Y69516D01*
Y68729D01*
X274034D01*
X273435Y69766D01*
X272039Y71162D01*
X270329Y72149D01*
X268421Y72660D01*
X266447D01*
X264539Y72149D01*
X262829Y71162D01*
X261432Y69766D01*
X260445Y68055D01*
X259934Y66148D01*
Y64173D01*
X260445Y62266D01*
X261432Y60555D01*
X262827Y59160D01*
X261432Y57765D01*
X260445Y56055D01*
X259934Y54148D01*
Y52173D01*
X260445Y50265D01*
X261432Y48555D01*
X262829Y47159D01*
X264539Y46171D01*
X266447Y45660D01*
X268421D01*
X270329Y46171D01*
X272039Y47159D01*
X273435Y48555D01*
X274034Y49592D01*
X707684D01*
X709050Y49864D01*
X710207Y50637D01*
X721357Y61787D01*
X721828Y61660D01*
X723540D01*
X725193Y62103D01*
X726675Y62959D01*
X727885Y64169D01*
X728741Y65651D01*
X729184Y67305D01*
Y69016D01*
X728741Y70669D01*
X727885Y72151D01*
X726675Y73362D01*
X725193Y74217D01*
X723540Y74660D01*
X721828D01*
X720175Y74217D01*
X718693Y73362D01*
X717483Y72151D01*
X716627Y70669D01*
X716184Y69016D01*
Y67305D01*
X716310Y66833D01*
X706206Y56729D01*
X274034D01*
X273435Y57765D01*
X272041Y59160D01*
X273435Y60555D01*
X274034Y61592D01*
X692393D01*
X693758Y61863D01*
X694596Y62423D01*
X695578Y62160D01*
X697290D01*
X698943Y62603D01*
X700425Y63459D01*
X701635Y64669D01*
X702491Y66151D01*
X702934Y67805D01*
Y69516D01*
X702491Y71169D01*
X701635Y72651D01*
X700425Y73862D01*
X698943Y74717D01*
X697290Y75160D01*
D02*
G37*
G36*
X29251Y151260D02*
X26617D01*
X24074Y150579D01*
X21794Y149262D01*
X19932Y147401D01*
X18615Y145120D01*
X17934Y142577D01*
Y139944D01*
X18615Y137401D01*
X19932Y135120D01*
X21794Y133258D01*
X24074Y131942D01*
X26617Y131260D01*
X29251D01*
X31794Y131942D01*
X34074Y133258D01*
X35936Y135120D01*
X37253Y137401D01*
X37331Y137692D01*
X124356D01*
X198911Y63137D01*
X200068Y62364D01*
X201434Y62092D01*
X230084D01*
X230683Y61055D01*
X231464Y60273D01*
X231941Y59410D01*
X231464Y58547D01*
X230683Y57765D01*
X230084Y56729D01*
X150662D01*
X89007Y118384D01*
X87850Y119157D01*
X86484Y119429D01*
X37331D01*
X37253Y119720D01*
X35936Y122001D01*
X34074Y123862D01*
X31794Y125179D01*
X29251Y125860D01*
X26617D01*
X24074Y125179D01*
X21794Y123862D01*
X19932Y122001D01*
X18615Y119720D01*
X17934Y117177D01*
Y114544D01*
X18615Y112001D01*
X19932Y109720D01*
X21794Y107858D01*
X24074Y106542D01*
X26617Y105860D01*
X29251D01*
X31794Y106542D01*
X34074Y107858D01*
X35936Y109720D01*
X37253Y112001D01*
X37331Y112292D01*
X85006D01*
X146661Y50637D01*
X147818Y49864D01*
X149184Y49592D01*
X230084D01*
X230683Y48555D01*
X232079Y47159D01*
X233789Y46171D01*
X235697Y45660D01*
X237671D01*
X239579Y46171D01*
X241289Y47159D01*
X242685Y48555D01*
X243673Y50265D01*
X244184Y52173D01*
Y54148D01*
X243673Y56055D01*
X242685Y57765D01*
X241904Y58547D01*
X241427Y59410D01*
X241904Y60273D01*
X242685Y61055D01*
X243673Y62765D01*
X244184Y64673D01*
Y66648D01*
X243673Y68555D01*
X242685Y70265D01*
X241289Y71662D01*
X239579Y72649D01*
X237671Y73160D01*
X235697D01*
X233789Y72649D01*
X232079Y71662D01*
X230683Y70265D01*
X230084Y69229D01*
X202912D01*
X128357Y143784D01*
X127200Y144557D01*
X125834Y144829D01*
X37331D01*
X37253Y145120D01*
X35936Y147401D01*
X34074Y149262D01*
X31794Y150579D01*
X29251Y151260D01*
D02*
G37*
G36*
X411040Y46160D02*
X409328D01*
X407675Y45717D01*
X406193Y44862D01*
X404983Y43651D01*
X404739Y43229D01*
X204379D01*
X204135Y43651D01*
X202925Y44862D01*
X201443Y45717D01*
X199790Y46160D01*
X198078D01*
X196425Y45717D01*
X194943Y44862D01*
X193733Y43651D01*
X192877Y42169D01*
X192434Y40516D01*
Y38805D01*
X192877Y37152D01*
X193733Y35669D01*
X194943Y34459D01*
X196425Y33603D01*
X198078Y33160D01*
X199790D01*
X201443Y33603D01*
X202925Y34459D01*
X204135Y35669D01*
X204379Y36092D01*
X404739D01*
X404983Y35669D01*
X406193Y34459D01*
X407675Y33603D01*
X409328Y33160D01*
X411040D01*
X412693Y33603D01*
X414175Y34459D01*
X415385Y35669D01*
X416241Y37152D01*
X416684Y38805D01*
Y40516D01*
X416241Y42169D01*
X415385Y43651D01*
X414175Y44862D01*
X412693Y45717D01*
X411040Y46160D01*
D02*
G37*
G36*
X867167Y57000D02*
X862833D01*
X858583Y56154D01*
X854579Y54496D01*
X850976Y52088D01*
X847912Y49024D01*
X845504Y45421D01*
X843846Y41417D01*
X843000Y37167D01*
Y32833D01*
X843846Y28583D01*
X845504Y24579D01*
X847912Y20976D01*
X850976Y17911D01*
X854579Y15504D01*
X858583Y13845D01*
X862833Y13000D01*
X867167D01*
X871417Y13845D01*
X875421Y15504D01*
X879024Y17911D01*
X882088Y20976D01*
X884496Y24579D01*
X886154Y28583D01*
X887000Y32833D01*
Y37167D01*
X886154Y41417D01*
X884496Y45421D01*
X882088Y49024D01*
X879024Y52088D01*
X875421Y54496D01*
X871417Y56154D01*
X867167Y57000D01*
D02*
G37*
G36*
X37167D02*
X32833D01*
X28583Y56154D01*
X24579Y54496D01*
X20976Y52088D01*
X17911Y49024D01*
X15504Y45421D01*
X13845Y41417D01*
X13000Y37167D01*
Y32833D01*
X13845Y28583D01*
X15504Y24579D01*
X17911Y20976D01*
X20976Y17911D01*
X24579Y15504D01*
X28583Y13845D01*
X32833Y13000D01*
X37167D01*
X41417Y13845D01*
X45421Y15504D01*
X49024Y17911D01*
X52088Y20976D01*
X54496Y24579D01*
X56154Y28583D01*
X57000Y32833D01*
Y37167D01*
X56154Y41417D01*
X54496Y45421D01*
X52088Y49024D01*
X49024Y52088D01*
X45421Y54496D01*
X41417Y56154D01*
X37167Y57000D01*
D02*
G37*
%LPD*%
D98*
X219750Y125094D02*
Y355000D01*
X212500Y362250D02*
X219750Y355000D01*
Y125094D02*
X228684Y116160D01*
X258500Y339250D02*
X295750D01*
X321059Y313941D01*
X276235Y333500D02*
X279750Y329985D01*
X253750Y333500D02*
X276235D01*
X279750Y329500D02*
X296068Y313182D01*
X279750Y329500D02*
Y329985D01*
X213434Y110160D02*
X213500Y110226D01*
Y347750D01*
X389250Y210000D02*
X389330Y210080D01*
X480354D02*
X480434Y210160D01*
X389330Y210080D02*
X480354D01*
X707684Y53160D02*
X722684Y68160D01*
X198934Y39660D02*
X198934Y39660D01*
X410184D01*
X267434Y53160D02*
X707684D01*
X27934Y141260D02*
X125834D01*
X27934Y115860D02*
X86484D01*
X149184Y53160D01*
X125834Y141260D02*
X201434Y65660D01*
X149184Y53160D02*
X236684D01*
X236434Y103660D02*
X236684Y103410D01*
X228684Y116160D02*
X235934D01*
X219934Y103660D02*
X236434D01*
X500934Y153410D02*
X501184Y153660D01*
X499684Y180660D02*
X525934Y154410D01*
X695893Y68660D02*
X696434D01*
X525934Y154410D02*
X528434D01*
X443434Y153160D02*
X443684Y153410D01*
X500934D01*
X201434Y65660D02*
X236684D01*
X267434Y65160D02*
X692393D01*
X695893Y68660D01*
X213434Y110160D02*
X219934Y103660D01*
X390500Y271750D02*
Y302750D01*
X126000Y312257D02*
Y378993D01*
X24824Y310500D02*
X124243D01*
X90493Y336000D02*
X92250Y337757D01*
X124243Y310500D02*
X126000Y312257D01*
X27275Y336000D02*
X90493D01*
X427100Y310250D02*
Y320900D01*
X326000Y328750D02*
X419250D01*
X427100Y320900D01*
X292250Y362500D02*
X326000Y328750D01*
X292250Y362500D02*
Y405500D01*
X101750Y460750D02*
X148750D01*
X100500Y452000D02*
X148750D01*
X37428Y571000D02*
X56743D01*
X50000Y502500D02*
X100500Y452000D01*
X58500Y504000D02*
X101750Y460750D01*
X50000Y502500D02*
Y550993D01*
X56743Y571000D02*
X58500Y569243D01*
X29178Y579250D02*
X37428Y571000D01*
X58500Y504000D02*
Y569243D01*
X47143Y553850D02*
X50000Y550993D01*
X28000Y579250D02*
X29178D01*
X28000Y553850D02*
X47143D01*
X225250Y362000D02*
X253750Y333500D01*
X235500Y362250D02*
X258500Y339250D01*
X205383Y355867D02*
X213500Y347750D01*
X205383Y355867D02*
Y361867D01*
X127757Y380750D02*
X146000D01*
X205000Y362250D02*
X205383Y361867D01*
X126000Y378993D02*
X127757Y380750D01*
X148500Y431250D02*
X148750Y431000D01*
X54250Y431250D02*
X148500D01*
X28000Y419675D02*
X42675D01*
X54250Y431250D01*
X92250Y412493D02*
X94007Y414250D01*
X149000D01*
X92250Y337757D02*
Y412493D01*
X28000Y445075D02*
X30182D01*
X36257Y439000D02*
X148750D01*
X30182Y445075D02*
X36257Y439000D01*
D99*
X478000Y306250D02*
X478500Y305750D01*
Y268250D02*
Y305750D01*
X271410Y704630D02*
X273950Y707170D01*
X482230Y661450D02*
X526680D01*
D103*
X271410Y705900D02*
X272680Y707170D01*
X298080Y663990D02*
Y707170D01*
X296810Y662720D02*
X298080Y663990D01*
X92340Y662720D02*
Y705900D01*
X93610Y707170D01*
X119010Y663990D02*
Y707170D01*
X271410Y704630D02*
Y705900D01*
X117740Y662720D02*
X119010Y663990D01*
X271410Y662720D02*
Y704630D01*
D104*
X841640Y532650D02*
D03*
Y482650D02*
D03*
D105*
X865000Y35000D02*
D03*
Y715000D02*
D03*
X35000Y35000D02*
D03*
Y715000D02*
D03*
D106*
X324500Y547000D02*
D03*
X108250Y531750D02*
D03*
X238250Y570500D02*
D03*
X171500Y569750D02*
D03*
D107*
X346184Y105910D02*
D03*
X360184D02*
D03*
X346184Y91910D02*
D03*
X360184D02*
D03*
X346184Y77910D02*
D03*
X360184Y77910D02*
D03*
X339184Y98910D02*
D03*
X353184D02*
D03*
X367184D02*
D03*
X339184Y84910D02*
D03*
X367184D02*
D03*
X353184D02*
D03*
D108*
X27934Y115860D02*
D03*
Y141260D02*
D03*
Y90460D02*
D03*
X28000Y528450D02*
D03*
Y579250D02*
D03*
Y553850D02*
D03*
Y285500D02*
D03*
Y310900D02*
D03*
Y260100D02*
D03*
Y394275D02*
D03*
Y445075D02*
D03*
Y419675D02*
D03*
X298080Y707170D02*
D03*
X119010D02*
D03*
D109*
X27934Y166660D02*
D03*
X28000Y604650D02*
D03*
Y336300D02*
D03*
Y470475D02*
D03*
D110*
X842364Y129750D02*
D03*
X842364Y187550D02*
D03*
D111*
X837464Y115400D02*
D03*
X837464Y201900D02*
D03*
D112*
X879164Y115400D02*
D03*
Y201900D02*
D03*
D113*
X446880Y369564D02*
D03*
X74000Y526750D02*
D03*
X74475Y394275D02*
D03*
D114*
X427100Y310250D02*
D03*
X401700D02*
D03*
X376300D02*
D03*
X350900D02*
D03*
X325500D02*
D03*
X300100D02*
D03*
X274700D02*
D03*
D115*
X249300D02*
D03*
D116*
X272680Y707170D02*
D03*
X93610D02*
D03*
D117*
X831900Y667400D02*
D03*
D118*
X870000Y616600D02*
D03*
X806500D02*
D03*
D119*
X872500Y517500D02*
D03*
Y317500D02*
D03*
Y217500D02*
D03*
X822500Y717500D02*
D03*
X847500Y567500D02*
D03*
Y267500D02*
D03*
X822500Y117500D02*
D03*
X847500Y67500D02*
D03*
X822500Y17500D02*
D03*
X772500Y717500D02*
D03*
X797500Y667500D02*
D03*
X772500Y617500D02*
D03*
Y517500D02*
D03*
X797500Y467500D02*
D03*
X772500Y417500D02*
D03*
X797500Y367500D02*
D03*
Y267500D02*
D03*
X772500Y117500D02*
D03*
X797500Y67500D02*
D03*
X772500Y17500D02*
D03*
X722500Y717500D02*
D03*
Y617500D02*
D03*
X747500Y567500D02*
D03*
X722500Y517500D02*
D03*
Y417500D02*
D03*
X747500Y267500D02*
D03*
Y167500D02*
D03*
Y67500D02*
D03*
X722500Y17500D02*
D03*
X672500Y417500D02*
D03*
Y217500D02*
D03*
X697500Y167500D02*
D03*
X672500Y17500D02*
D03*
X647500Y567500D02*
D03*
X622500Y417500D02*
D03*
X647500Y367500D02*
D03*
X622500Y317500D02*
D03*
X647500Y267500D02*
D03*
X622500Y217500D02*
D03*
X647500Y167500D02*
D03*
X622500Y17500D02*
D03*
X597500Y667500D02*
D03*
Y467500D02*
D03*
Y367500D02*
D03*
Y267500D02*
D03*
X572500Y217500D02*
D03*
X597500Y167500D02*
D03*
X572500Y17500D02*
D03*
X547500Y567500D02*
D03*
X522500Y317500D02*
D03*
X547500Y267500D02*
D03*
X522500Y217500D02*
D03*
X547500Y167500D02*
D03*
X472500Y317500D02*
D03*
X497500Y267500D02*
D03*
Y167500D02*
D03*
X472500Y17500D02*
D03*
X447500Y667500D02*
D03*
X422500Y617500D02*
D03*
X447500Y267500D02*
D03*
Y167500D02*
D03*
X372500Y617500D02*
D03*
Y417500D02*
D03*
X397500Y367500D02*
D03*
Y167500D02*
D03*
X372500Y117500D02*
D03*
Y17500D02*
D03*
X322500Y617500D02*
D03*
X347500Y567500D02*
D03*
Y267500D02*
D03*
Y167500D02*
D03*
X322500Y117500D02*
D03*
Y17500D02*
D03*
X272500Y617500D02*
D03*
X297500Y267500D02*
D03*
Y167500D02*
D03*
X272500Y117500D02*
D03*
Y17500D02*
D03*
X222500Y717500D02*
D03*
Y617500D02*
D03*
Y517500D02*
D03*
X247500Y267500D02*
D03*
X222500Y17500D02*
D03*
X172500Y717500D02*
D03*
Y617500D02*
D03*
X197500Y567500D02*
D03*
Y267500D02*
D03*
X172500Y217500D02*
D03*
X197500Y167500D02*
D03*
X172500Y117500D02*
D03*
Y17500D02*
D03*
X122500Y617500D02*
D03*
X147500Y267500D02*
D03*
X122500Y217500D02*
D03*
X147500Y167500D02*
D03*
Y67500D02*
D03*
X122500Y17500D02*
D03*
X72500Y717500D02*
D03*
Y617500D02*
D03*
X97500Y567500D02*
D03*
X72500Y417500D02*
D03*
Y317500D02*
D03*
X97500Y267500D02*
D03*
X72500Y217500D02*
D03*
X97500Y167500D02*
D03*
Y67500D02*
D03*
X72500Y17500D02*
D03*
X47500Y667500D02*
D03*
X22500Y617500D02*
D03*
X47500Y467500D02*
D03*
Y367500D02*
D03*
Y267500D02*
D03*
X22500Y217500D02*
D03*
X47500Y167500D02*
D03*
Y67500D02*
D03*
X184250Y397500D02*
D03*
X204250D02*
D03*
X224250D02*
D03*
X244250D02*
D03*
X264250D02*
D03*
X184250Y417500D02*
D03*
X204250D02*
D03*
X224250D02*
D03*
X244250D02*
D03*
X264250D02*
D03*
X184250Y437500D02*
D03*
X204250D02*
D03*
X224250D02*
D03*
X244250D02*
D03*
X264250D02*
D03*
X184250Y457500D02*
D03*
X204250D02*
D03*
X224250D02*
D03*
X244250D02*
D03*
X264250D02*
D03*
X184250Y477500D02*
D03*
X264250D02*
D03*
X244250D02*
D03*
X224250D02*
D03*
X204250D02*
D03*
X724500Y259250D02*
D03*
X478500Y268250D02*
D03*
X478000Y306250D02*
D03*
X407250Y269000D02*
D03*
X399250D02*
D03*
X407000Y238250D02*
D03*
X399500D02*
D03*
X389250Y210000D02*
D03*
X752434Y75410D02*
D03*
X722684Y68160D02*
D03*
X696434Y68660D02*
D03*
X744934Y75410D02*
D03*
X528434Y154410D02*
D03*
X499684Y180660D02*
D03*
X501184Y153660D02*
D03*
X480434Y210160D02*
D03*
X443434Y153160D02*
D03*
X545684Y15910D02*
D03*
X454684Y11160D02*
D03*
X531184Y15910D02*
D03*
X482434Y11160D02*
D03*
X516184Y15910D02*
D03*
X467934Y11160D02*
D03*
X494184D02*
D03*
X724434Y234160D02*
D03*
X623934Y176160D02*
D03*
X724434Y251660D02*
D03*
X624184Y148410D02*
D03*
X724434Y226910D02*
D03*
X624184Y185410D02*
D03*
Y157910D02*
D03*
X198934Y39660D02*
D03*
X235934Y116160D02*
D03*
X236684Y103410D02*
D03*
X410184Y39660D02*
D03*
X390500Y302750D02*
D03*
Y271750D02*
D03*
X574000Y666000D02*
D03*
X539000Y665750D02*
D03*
X508250Y330250D02*
D03*
X497250Y330500D02*
D03*
X608000Y558250D02*
D03*
X601500Y571500D02*
D03*
X608000Y548250D02*
D03*
X482230Y661450D02*
D03*
X535250Y340750D02*
D03*
X526000D02*
D03*
X601500Y560000D02*
D03*
X564000Y666000D02*
D03*
X526680Y661450D02*
D03*
X548250Y665750D02*
D03*
X344750Y516750D02*
D03*
X479500Y331000D02*
D03*
X468000D02*
D03*
X235500Y362250D02*
D03*
X281750Y510250D02*
D03*
X148750Y460750D02*
D03*
Y439000D02*
D03*
X149000Y414250D02*
D03*
X212500Y362250D02*
D03*
X148750Y431000D02*
D03*
Y452000D02*
D03*
X205000Y362250D02*
D03*
X296810Y662720D02*
D03*
X333750Y516750D02*
D03*
X271410Y662720D02*
D03*
X338250Y614000D02*
D03*
X281750Y519750D02*
D03*
X310500Y516750D02*
D03*
X320750D02*
D03*
X338250Y619750D02*
D03*
X251500Y326250D02*
D03*
X244250D02*
D03*
X147250Y614000D02*
D03*
X158250Y619750D02*
D03*
Y614000D02*
D03*
X147250Y619750D02*
D03*
X117740Y662720D02*
D03*
X348500Y619750D02*
D03*
X348750Y614000D02*
D03*
X335000Y427250D02*
D03*
X334250Y348750D02*
D03*
X335250Y470250D02*
D03*
X273750Y327500D02*
D03*
X292250Y405500D02*
D03*
X325500Y427250D02*
D03*
Y348750D02*
D03*
X325000Y470250D02*
D03*
X203750Y512750D02*
D03*
X225250Y362000D02*
D03*
X128750Y425250D02*
D03*
X146000Y380750D02*
D03*
X734750Y556000D02*
D03*
X743750D02*
D03*
X139000Y425250D02*
D03*
X203750Y521250D02*
D03*
X92340Y662720D02*
D03*
D120*
X236684Y53160D02*
D03*
X267434D02*
D03*
Y65160D02*
D03*
X236684Y65660D02*
D03*
M02*
