G04*
G04 #@! TF.GenerationSoftware,Altium Limited,Altium Designer,24.1.2 (44)*
G04*
G04 Layer_Color=255*
%FSLAX44Y44*%
%MOMM*%
G71*
G04*
G04 #@! TF.SameCoordinates,C3C585C2-8FFB-4C0B-8854-E287818FFA03*
G04*
G04*
G04 #@! TF.FilePolarity,Positive*
G04*
G01*
G75*
%ADD104R,5.0000X3.0000*%
%ADD105C,4.0000*%
%ADD106C,1.3000*%
%ADD107C,0.4000*%
%ADD108C,1.6000*%
%ADD109R,1.6000X1.6000*%
%ADD110C,0.6000*%
%ADD111O,2.0000X0.9000*%
%ADD112O,1.7000X0.9000*%
%ADD113C,1.5000*%
%ADD114C,1.2000*%
%ADD115R,1.2000X1.2000*%
%ADD116R,1.6000X1.6000*%
%ADD117R,4.0640X2.5400*%
%ADD118R,2.5400X4.0640*%
D104*
X841640Y532650D02*
D03*
Y482650D02*
D03*
D105*
X865000Y35000D02*
D03*
Y715000D02*
D03*
X35000Y35000D02*
D03*
Y715000D02*
D03*
D106*
X324500Y547000D02*
D03*
X108250Y531750D02*
D03*
X238250Y570500D02*
D03*
X171500Y569750D02*
D03*
D107*
X346184Y105910D02*
D03*
X360184D02*
D03*
X346184Y91910D02*
D03*
X360184D02*
D03*
X346184Y77910D02*
D03*
X360184Y77910D02*
D03*
X339184Y98910D02*
D03*
X353184D02*
D03*
X367184D02*
D03*
X339184Y84910D02*
D03*
X367184D02*
D03*
X353184D02*
D03*
D108*
X27934Y115860D02*
D03*
Y141260D02*
D03*
Y90460D02*
D03*
X28000Y528450D02*
D03*
Y579250D02*
D03*
Y553850D02*
D03*
Y285500D02*
D03*
Y310900D02*
D03*
Y260100D02*
D03*
Y394275D02*
D03*
Y445075D02*
D03*
Y419675D02*
D03*
X298080Y707170D02*
D03*
X119010D02*
D03*
D109*
X27934Y166660D02*
D03*
X28000Y604650D02*
D03*
Y336300D02*
D03*
Y470475D02*
D03*
D110*
X842364Y129750D02*
D03*
X842364Y187550D02*
D03*
D111*
X837464Y115400D02*
D03*
X837464Y201900D02*
D03*
D112*
X879164Y115400D02*
D03*
Y201900D02*
D03*
D113*
X446880Y369564D02*
D03*
X74000Y526750D02*
D03*
X74475Y394275D02*
D03*
D114*
X427100Y310250D02*
D03*
X401700D02*
D03*
X376300D02*
D03*
X350900D02*
D03*
X325500D02*
D03*
X300100D02*
D03*
X274700D02*
D03*
D115*
X249300D02*
D03*
D116*
X272680Y707170D02*
D03*
X93610D02*
D03*
D117*
X831900Y667400D02*
D03*
D118*
X870000Y616600D02*
D03*
X806500D02*
D03*
M02*
