G04*
G04 #@! TF.GenerationSoftware,Altium Limited,Altium Designer,24.1.2 (44)*
G04*
G04 Layer_Color=8388736*
%FSLAX44Y44*%
%MOMM*%
G71*
G04*
G04 #@! TF.SameCoordinates,C3C585C2-8FFB-4C0B-8854-E287818FFA03*
G04*
G04*
G04 #@! TF.FilePolarity,Negative*
G04*
G01*
G75*
%ADD35R,0.6000X0.8000*%
%ADD40R,1.4605X0.5588*%
%ADD54R,1.4032X1.6032*%
%ADD55R,1.6032X1.4032*%
%ADD56R,1.1032X1.7032*%
%ADD57R,1.7032X1.1032*%
%ADD58R,1.1032X1.1032*%
%ADD59R,1.1024X1.1524*%
%ADD60R,1.2400X0.7000*%
%ADD61R,1.2400X0.4000*%
%ADD62R,1.3462X1.1132*%
%ADD63R,0.7874X2.6524*%
%ADD64O,0.7874X2.6524*%
%ADD65R,3.4032X4.2032*%
%ADD66R,1.4032X1.0032*%
%ADD67R,1.6732X1.4882*%
G04:AMPARAMS|DCode=68|XSize=1.5032mm|YSize=1.3032mm|CornerRadius=0.1566mm|HoleSize=0mm|Usage=FLASHONLY|Rotation=270.000|XOffset=0mm|YOffset=0mm|HoleType=Round|Shape=RoundedRectangle|*
%AMROUNDEDRECTD68*
21,1,1.5032,0.9900,0,0,270.0*
21,1,1.1900,1.3032,0,0,270.0*
1,1,0.3132,-0.4950,-0.5950*
1,1,0.3132,-0.4950,0.5950*
1,1,0.3132,0.4950,0.5950*
1,1,0.3132,0.4950,-0.5950*
%
%ADD68ROUNDEDRECTD68*%
%ADD69R,2.7032X1.9032*%
%ADD70R,2.6162X3.5052*%
%ADD71R,1.1132X1.3462*%
%ADD72R,1.2532X4.4032*%
%ADD73R,10.2032X9.2032*%
G04:AMPARAMS|DCode=74|XSize=1.5432mm|YSize=3.4932mm|CornerRadius=0.2691mm|HoleSize=0mm|Usage=FLASHONLY|Rotation=90.000|XOffset=0mm|YOffset=0mm|HoleType=Round|Shape=RoundedRectangle|*
%AMROUNDEDRECTD74*
21,1,1.5432,2.9550,0,0,90.0*
21,1,1.0050,3.4932,0,0,90.0*
1,1,0.5382,1.4775,0.5025*
1,1,0.5382,1.4775,-0.5025*
1,1,0.5382,-1.4775,-0.5025*
1,1,0.5382,-1.4775,0.5025*
%
%ADD74ROUNDEDRECTD74*%
%ADD75O,1.6532X0.5032*%
%ADD76O,0.5032X1.6532*%
%ADD77O,0.7874X2.4384*%
%ADD78R,0.7874X2.4384*%
%ADD79R,2.2032X4.2032*%
%ADD80R,4.2032X2.2032*%
%ADD81R,6.2032X10.2032*%
%ADD82R,1.9032X1.9032*%
%ADD83R,1.6002X1.4732*%
%ADD84R,5.2032X3.2032*%
%ADD85C,4.2032*%
%ADD86C,0.6032*%
%ADD87C,1.8032*%
%ADD88R,1.8032X1.8032*%
%ADD89C,0.8032*%
%ADD90O,2.2032X1.1032*%
%ADD91O,1.9032X1.1032*%
%ADD92C,1.7032*%
%ADD93C,1.4032*%
%ADD94R,1.4032X1.4032*%
%ADD95R,1.8032X1.8032*%
%ADD96R,4.2672X2.7432*%
%ADD97R,2.7432X4.2672*%
D35*
X653000Y109900D02*
D03*
X643500Y130100D02*
D03*
X662500D02*
D03*
X643500Y204150D02*
D03*
X662500D02*
D03*
X653000Y224350D02*
D03*
D40*
X580592Y643670D02*
D03*
X580592Y630970D02*
D03*
X580592Y618270D02*
D03*
Y605570D02*
D03*
X526109D02*
D03*
Y618270D02*
D03*
X526109Y630970D02*
D03*
X526108Y643670D02*
D03*
D54*
X717228Y230626D02*
D03*
X698228D02*
D03*
X698140Y255694D02*
D03*
X717140D02*
D03*
X643794Y180928D02*
D03*
X662794D02*
D03*
X662956Y153630D02*
D03*
X643956D02*
D03*
X423250Y226500D02*
D03*
X404250D02*
D03*
X838580Y95718D02*
D03*
X819580Y95718D02*
D03*
X594790Y180808D02*
D03*
X613790D02*
D03*
X594790Y153564D02*
D03*
X613790Y153564D02*
D03*
X838580Y220178D02*
D03*
X819580Y220178D02*
D03*
X484250Y180808D02*
D03*
X465250Y180808D02*
D03*
X484250Y153564D02*
D03*
X465250D02*
D03*
X404250Y257250D02*
D03*
X423250D02*
D03*
X637824Y466532D02*
D03*
X618824D02*
D03*
X105000Y549750D02*
D03*
X124000D02*
D03*
X637736Y495078D02*
D03*
X618736D02*
D03*
X618736Y552279D02*
D03*
X637736Y552279D02*
D03*
X571834Y566200D02*
D03*
X590834Y566200D02*
D03*
X618798Y609346D02*
D03*
X637798D02*
D03*
X637824Y523733D02*
D03*
X618824Y523733D02*
D03*
X637798Y580746D02*
D03*
X618798Y580745D02*
D03*
X149250Y549750D02*
D03*
X168250D02*
D03*
X174750Y516750D02*
D03*
X193750D02*
D03*
X249500Y549750D02*
D03*
X230500D02*
D03*
X251706Y515284D02*
D03*
X270706D02*
D03*
X296000Y549750D02*
D03*
X277000D02*
D03*
D55*
X749148Y102114D02*
D03*
Y83114D02*
D03*
X618120Y646210D02*
D03*
Y665210D02*
D03*
X639710Y665210D02*
D03*
X639710Y646210D02*
D03*
X482516Y620156D02*
D03*
Y639156D02*
D03*
X723052Y83114D02*
D03*
X723052Y102114D02*
D03*
X696382Y83114D02*
D03*
X696382Y102114D02*
D03*
X461218Y21704D02*
D03*
Y40704D02*
D03*
X487900Y40616D02*
D03*
Y21616D02*
D03*
X330392Y398394D02*
D03*
Y417394D02*
D03*
Y377936D02*
D03*
Y358936D02*
D03*
X169250Y349500D02*
D03*
Y330500D02*
D03*
X145059Y330500D02*
D03*
X145059Y349500D02*
D03*
X250250Y356000D02*
D03*
Y337000D02*
D03*
X302500Y356500D02*
D03*
X302500Y337500D02*
D03*
X133716Y396206D02*
D03*
X133716Y415206D02*
D03*
X274000Y356500D02*
D03*
X274000Y337500D02*
D03*
X153300Y603030D02*
D03*
X153300Y584030D02*
D03*
X193442Y348934D02*
D03*
Y329934D02*
D03*
X343834Y630404D02*
D03*
Y649404D02*
D03*
X357000Y459750D02*
D03*
X357000Y440750D02*
D03*
X153300Y630542D02*
D03*
Y649542D02*
D03*
X330142Y440750D02*
D03*
Y459750D02*
D03*
X569534Y695294D02*
D03*
Y676294D02*
D03*
X543466Y695294D02*
D03*
Y676294D02*
D03*
X316216Y487456D02*
D03*
Y506456D02*
D03*
X557822Y353456D02*
D03*
Y372456D02*
D03*
X739304Y526246D02*
D03*
Y545246D02*
D03*
X385404Y487474D02*
D03*
Y506474D02*
D03*
X343834Y583892D02*
D03*
X343834Y602892D02*
D03*
X339224Y487474D02*
D03*
Y506474D02*
D03*
X709452Y526246D02*
D03*
X709452Y545246D02*
D03*
D56*
X268334Y192310D02*
D03*
X281034D02*
D03*
X293734D02*
D03*
X306434D02*
D03*
X319134D02*
D03*
X331834Y192310D02*
D03*
X344534Y192310D02*
D03*
X357234D02*
D03*
X369934D02*
D03*
X382634Y192310D02*
D03*
X395334Y192310D02*
D03*
X408034D02*
D03*
D57*
X250684Y14710D02*
D03*
Y27410D02*
D03*
Y40110D02*
D03*
Y52810D02*
D03*
Y65510D02*
D03*
Y78210D02*
D03*
Y90910D02*
D03*
Y103610D02*
D03*
Y116310D02*
D03*
Y129010D02*
D03*
Y141710D02*
D03*
Y154410D02*
D03*
Y167110D02*
D03*
Y179810D02*
D03*
X425684Y179810D02*
D03*
X425684Y167110D02*
D03*
X425684Y154410D02*
D03*
X425684Y141710D02*
D03*
X425684Y129010D02*
D03*
X425684Y116310D02*
D03*
X425684Y103610D02*
D03*
X425684Y90910D02*
D03*
X425684Y78210D02*
D03*
X425684Y65510D02*
D03*
X425684Y52810D02*
D03*
X425684Y40110D02*
D03*
X425684Y27410D02*
D03*
X425684Y14710D02*
D03*
D58*
X339184Y77910D02*
D03*
X353184Y77910D02*
D03*
X367184D02*
D03*
X339184Y105910D02*
D03*
X353184D02*
D03*
X367184Y105910D02*
D03*
X339184Y91910D02*
D03*
X367184Y91910D02*
D03*
X353184Y91910D02*
D03*
D59*
X447250Y242000D02*
D03*
Y227000D02*
D03*
D60*
X831664Y126650D02*
D03*
Y134650D02*
D03*
X831664Y182650D02*
D03*
X831664Y190650D02*
D03*
D61*
Y156150D02*
D03*
X831664Y151150D02*
D03*
Y146150D02*
D03*
X831664Y141150D02*
D03*
X831664Y161150D02*
D03*
X831664Y166150D02*
D03*
Y171150D02*
D03*
Y176150D02*
D03*
D62*
X571934Y62510D02*
D03*
Y95310D02*
D03*
D63*
X698563Y201270D02*
D03*
X711263Y201270D02*
D03*
X723963Y201270D02*
D03*
X736663Y201270D02*
D03*
X749363Y201270D02*
D03*
X762063Y201270D02*
D03*
X774763D02*
D03*
X787463Y201270D02*
D03*
X787462Y136270D02*
D03*
X774762D02*
D03*
X762062Y136270D02*
D03*
X749362Y136270D02*
D03*
X736662Y136270D02*
D03*
X723962D02*
D03*
X711263Y136270D02*
D03*
D64*
X698563D02*
D03*
D65*
X531184Y39910D02*
D03*
Y113910D02*
D03*
D66*
X115944Y59550D02*
D03*
X185944Y59550D02*
D03*
X115944Y110985D02*
D03*
X185944Y110985D02*
D03*
X115944Y162420D02*
D03*
X185944D02*
D03*
D67*
X363780Y487899D02*
D03*
Y507359D02*
D03*
D68*
X375250Y401750D02*
D03*
X356250D02*
D03*
X375250Y378750D02*
D03*
X356250D02*
D03*
D69*
X482550Y566200D02*
D03*
X522550D02*
D03*
D70*
X553350Y624620D02*
D03*
D71*
X739150Y506000D02*
D03*
X706350D02*
D03*
D72*
X740040Y468680D02*
D03*
X689240D02*
D03*
D73*
X714640Y366180D02*
D03*
D74*
X841640Y331610D02*
D03*
Y374610D02*
D03*
D75*
X280500Y401000D02*
D03*
Y406000D02*
D03*
Y411000D02*
D03*
Y416000D02*
D03*
X280500Y421000D02*
D03*
Y426000D02*
D03*
X280500Y431000D02*
D03*
Y436000D02*
D03*
Y441000D02*
D03*
Y446000D02*
D03*
X280500Y451000D02*
D03*
Y456000D02*
D03*
X280500Y461000D02*
D03*
Y466000D02*
D03*
Y471000D02*
D03*
Y476000D02*
D03*
X166000D02*
D03*
Y471000D02*
D03*
Y466000D02*
D03*
Y461000D02*
D03*
X166000Y456000D02*
D03*
Y451000D02*
D03*
X166000Y446000D02*
D03*
Y441000D02*
D03*
Y436000D02*
D03*
Y431000D02*
D03*
X166000Y426000D02*
D03*
Y421000D02*
D03*
X166000Y416000D02*
D03*
Y411000D02*
D03*
Y406000D02*
D03*
Y401000D02*
D03*
D76*
X260750Y495750D02*
D03*
X255750D02*
D03*
X250750D02*
D03*
X245750D02*
D03*
X240750Y495750D02*
D03*
X235750D02*
D03*
X230750Y495750D02*
D03*
X225750D02*
D03*
X220750D02*
D03*
X215750D02*
D03*
X210750Y495750D02*
D03*
X205750D02*
D03*
X200750Y495750D02*
D03*
X195750D02*
D03*
X190750D02*
D03*
X185750D02*
D03*
Y381250D02*
D03*
X190750D02*
D03*
X195750D02*
D03*
X200750D02*
D03*
X205750Y381250D02*
D03*
X210750D02*
D03*
X215750Y381250D02*
D03*
X220750D02*
D03*
X225750D02*
D03*
X230750D02*
D03*
X235750Y381250D02*
D03*
X240750D02*
D03*
X245750Y381250D02*
D03*
X250750D02*
D03*
X255750D02*
D03*
X260750D02*
D03*
D77*
X92341Y584915D02*
D03*
X271411Y584915D02*
D03*
D78*
X105041Y584915D02*
D03*
X117741D02*
D03*
X130441Y584915D02*
D03*
X92341Y646546D02*
D03*
X105041Y646546D02*
D03*
X117741Y646546D02*
D03*
X130441Y646546D02*
D03*
X309511Y646546D02*
D03*
X296811Y646546D02*
D03*
X284111Y646546D02*
D03*
X271411Y646546D02*
D03*
X309511Y584915D02*
D03*
X296811D02*
D03*
X284111Y584915D02*
D03*
D79*
X211720Y647270D02*
D03*
X211720Y589270D02*
D03*
X399680D02*
D03*
X399680Y647270D02*
D03*
D80*
X744910Y675420D02*
D03*
X686910Y675420D02*
D03*
X744910Y595410D02*
D03*
X686910Y595410D02*
D03*
D81*
X555890Y474760D02*
D03*
X449890Y475760D02*
D03*
D82*
X502550Y343960D02*
D03*
Y376960D02*
D03*
X474351D02*
D03*
X474351Y343960D02*
D03*
D83*
X530490Y374430D02*
D03*
Y351570D02*
D03*
X145073Y309730D02*
D03*
Y286870D02*
D03*
X169265D02*
D03*
X169265Y309730D02*
D03*
X192850Y309730D02*
D03*
Y286870D02*
D03*
D84*
X841640Y532650D02*
D03*
Y482650D02*
D03*
D85*
X865000Y35000D02*
D03*
Y715000D02*
D03*
X35000Y35000D02*
D03*
Y715000D02*
D03*
D86*
X346184Y105910D02*
D03*
X360184D02*
D03*
X346184Y91910D02*
D03*
X360184D02*
D03*
X346184Y77910D02*
D03*
X360184Y77910D02*
D03*
X339184Y98910D02*
D03*
X353184D02*
D03*
X367184D02*
D03*
X339184Y84910D02*
D03*
X367184D02*
D03*
X353184D02*
D03*
D87*
X27934Y115860D02*
D03*
Y141260D02*
D03*
Y90460D02*
D03*
X28000Y528450D02*
D03*
Y579250D02*
D03*
Y553850D02*
D03*
Y285500D02*
D03*
Y310900D02*
D03*
Y260100D02*
D03*
Y394275D02*
D03*
Y445075D02*
D03*
Y419675D02*
D03*
X298080Y707170D02*
D03*
X119010D02*
D03*
D88*
X27934Y166660D02*
D03*
X28000Y604650D02*
D03*
Y336300D02*
D03*
Y470475D02*
D03*
D89*
X842364Y129750D02*
D03*
X842364Y187550D02*
D03*
D90*
X837464Y115400D02*
D03*
X837464Y201900D02*
D03*
D91*
X879164Y115400D02*
D03*
Y201900D02*
D03*
D92*
X446880Y369564D02*
D03*
X74000Y526750D02*
D03*
X74475Y394275D02*
D03*
D93*
X427100Y310250D02*
D03*
X401700D02*
D03*
X376300D02*
D03*
X350900D02*
D03*
X325500D02*
D03*
X300100D02*
D03*
X274700D02*
D03*
D94*
X249300D02*
D03*
D95*
X272680Y707170D02*
D03*
X93610D02*
D03*
D96*
X831900Y667400D02*
D03*
D97*
X870000Y616600D02*
D03*
X806500D02*
D03*
M02*
